<svg width="237" height="62" viewBox="0 0 237 62" fill="none" xmlns="http://www.w3.org/2000/svg">
<g clip-path="url(#clip0_676_447)">
<path d="M43.8394 24.7045C43.8394 28.2328 43.8076 31.761 43.8394 35.284C43.8798 35.7417 43.7793 36.2008 43.5515 36.5998C43.3236 36.9988 42.9792 37.3186 42.5645 37.5163C36.3296 41.1345 30.0965 44.7668 23.8652 48.4132C21.8868 49.5611 19.9137 50.7196 17.9301 51.8569C16.6764 52.5763 16.3114 52.3858 16.3008 50.8941V41.3725C16.2756 41.0018 16.3631 40.6321 16.5519 40.312C16.7408 39.9919 17.022 39.7365 17.3588 39.5793C21.8868 36.9344 26.3884 34.2578 30.9323 31.6447C31.3484 31.4566 31.6957 31.1437 31.926 30.7494C32.1563 30.3551 32.2583 29.899 32.2177 29.4441C32.1595 26.2279 32.1648 23.0065 32.2177 19.7903C32.2583 19.3551 32.1631 18.9181 31.9453 18.5392C31.7274 18.1604 31.3976 17.8582 31.0011 17.6744C28.2398 16.1192 25.4944 14.5323 22.7967 12.8766C21.9397 12.3476 21.2997 12.6332 20.6014 13.0406L9.76792 19.3883L1.99197 23.9216C1.09799 24.4506 0.674809 24.1861 0.674809 23.1705V12.9929C0.674024 12.6412 0.777656 12.297 0.972581 12.0042C1.16751 11.7113 1.44496 11.4829 1.7698 11.3478C6.63638 8.50194 11.4871 5.62959 16.3484 2.77841C17.7132 1.97436 19.1097 1.22322 20.4639 0.403303C20.8548 0.140411 21.3152 0 21.7863 0C22.2574 0 22.7178 0.140411 23.1088 0.403303C29.6822 4.25073 36.2591 8.09286 42.8396 11.9297C43.192 12.1078 43.482 12.3889 43.6709 12.7356C43.8599 13.0823 43.9389 13.4783 43.8975 13.8711C43.8235 17.4575 43.8394 21.0916 43.8394 24.7045Z" fill="#0F359C"/>
<path d="M0.685507 59.3683C0.685507 50.6085 0.780723 41.8486 0.62203 33.094C0.579712 30.9147 1.4631 29.7245 3.1717 28.8622C8.72596 26.1063 13.7989 22.5145 19.2949 19.6474C19.7181 19.4253 20.0831 19.092 20.4904 18.8328C21.2204 18.3673 22.0774 17.9759 22.8655 18.3567C24.791 19.2825 26.7535 20.1976 28.2611 21.8004C28.5467 22.1072 28.8271 22.4828 28.642 22.8583C28.0759 24.0327 28.3246 25.2863 28.1765 26.4924C28.0072 27.8995 26.7271 28.2751 25.7326 28.8569C21.7194 31.2021 17.6921 33.5207 13.6507 35.813C12.5928 36.4001 12.2701 37.1619 12.2966 38.3838C12.3865 42.9594 12.3442 47.5404 12.2966 52.1372C12.2966 52.8831 12.1379 53.6236 12.085 54.3642C12.0502 54.7347 11.9211 55.0902 11.7099 55.3967C11.4988 55.7032 11.2127 55.9505 10.8789 56.1151C8.14408 57.8819 5.15536 59.2096 2.53164 61.1562C2.11375 61.4683 1.5689 61.7487 1.05579 61.4207C0.336382 60.9288 0.479206 60.1036 0.685507 59.3683Z" fill="#F59916"/>
<mask id="mask0_676_447" style="mask-type:luminance" maskUnits="userSpaceOnUse" x="60" y="16" width="177" height="25">
<path d="M69.9402 17.15H70.6502C73.2435 17.31 75.1668 18.1167 76.4202 19.57C77.6802 21.0233 78.3101 22.9867 78.3101 25.46C78.3101 26.48 78.0902 27.4267 77.6502 28.3C77.2102 29.18 76.6102 29.9467 75.8502 30.6C75.0902 31.26 74.2035 31.7767 73.1902 32.15C72.1835 32.5233 71.1235 32.71 70.0102 32.71H65.3102V38.74H62.3102V20.73C61.9235 20.71 61.5602 20.6767 61.2202 20.63C60.8802 20.5833 60.5402 20.4933 60.2002 20.36V17.5C60.6535 17.6133 61.1235 17.69 61.6102 17.73C62.1035 17.7767 62.5535 17.8 62.9602 17.8C63.5468 17.8 64.1202 17.7667 64.6802 17.7C65.2335 17.6333 65.7935 17.5667 66.3602 17.5C66.9535 17.3867 67.5335 17.3 68.1002 17.24C68.6668 17.18 69.2802 17.15 69.9402 17.15ZM75.6202 25.29C75.6202 24.6767 75.5635 24.07 75.4502 23.47C75.3368 22.87 75.1002 22.33 74.7402 21.85C74.3735 21.3767 73.8502 20.98 73.1702 20.66C72.4902 20.3467 71.5835 20.1533 70.4502 20.08C69.8168 20.08 69.0635 20.1033 68.1902 20.15C67.3102 20.1967 66.3502 20.3433 65.3102 20.59V29.75H70.0102C70.7568 29.75 71.4602 29.65 72.1202 29.45C72.7802 29.2433 73.3635 28.94 73.8702 28.54C74.3835 28.1467 74.7935 27.6767 75.1002 27.13C75.4068 26.5833 75.5802 25.97 75.6202 25.29ZM81.3802 27.03C81.4268 26.2767 81.6702 25.5767 82.1102 24.93C82.5502 24.2833 83.1135 23.8267 83.8001 23.56C83.8868 23.5133 83.9635 23.49 84.0302 23.49V17.36C84.5102 17.2933 85.0635 17.2433 85.6902 17.21C86.3102 17.17 86.8935 17.15 87.4402 17.15C88.6668 17.15 89.8968 17.2667 91.1302 17.5C92.3702 17.7267 93.4835 18.1 94.4702 18.62C95.4568 19.14 96.2635 19.8433 96.8901 20.73C97.5101 21.6167 97.8202 22.7167 97.8202 24.03C97.8202 25.69 97.4302 27.0633 96.6502 28.15C95.8635 29.2433 94.6868 30.1067 93.1201 30.74C93.5535 31.5133 94.0135 32.29 94.5002 33.07C94.9868 33.8567 95.5168 34.56 96.0902 35.18C96.6568 35.8067 97.2668 36.3167 97.9202 36.71C98.5802 37.11 99.3068 37.31 100.1 37.31V40.2C98.8801 40.2 97.7535 39.93 96.7202 39.39C95.6868 38.8433 94.7502 38.15 93.9102 37.31C93.0702 36.47 92.3135 35.54 91.6401 34.52C90.9735 33.5 90.3901 32.5133 89.8901 31.56C89.7301 31.6 89.4735 31.64 89.1202 31.68C88.7735 31.7133 88.1435 31.75 87.2301 31.79C87.1901 31.79 87.1402 31.7967 87.0802 31.81C87.0268 31.8233 86.9768 31.83 86.9302 31.83V38.71H84.0302V31.18C83.7835 31.0667 83.5868 30.9433 83.4402 30.81C83.2935 30.67 83.1268 30.51 82.9402 30.33C82.4202 29.8767 82.0302 29.36 81.7702 28.78C81.5102 28.2 81.3802 27.6167 81.3802 27.03ZM89.4801 25.39C89.8001 25.71 90.1135 26.11 90.4202 26.59C90.7268 27.0633 91.0501 27.5833 91.3901 28.15C92.7301 27.6767 93.6502 27.0867 94.1502 26.38C94.6435 25.68 94.8901 24.9767 94.8901 24.27C94.8901 23.2967 94.6135 22.53 94.0602 21.97C93.5068 21.4167 92.8268 21.0033 92.0202 20.73C91.2135 20.4567 90.3568 20.2933 89.4502 20.24C88.5435 20.18 87.7268 20.15 87.0002 20.15C86.9735 20.1967 86.9602 20.3433 86.9602 20.59C86.9602 20.8167 86.9535 21.1633 86.9402 21.63C86.9335 22.0967 86.9302 22.76 86.9302 23.62C87.3168 23.78 87.7235 24.0033 88.1502 24.29C88.5835 24.57 89.0268 24.9367 89.4801 25.39ZM87.2002 28.93L88.7002 28.9C88.5402 28.6067 88.3368 28.29 88.0902 27.95C87.8368 27.61 87.5568 27.2867 87.2502 26.98C86.9435 26.6733 86.6135 26.4167 86.2602 26.21C85.9135 26.0033 85.5568 25.9 85.1902 25.9C84.8702 25.9 84.5868 26.0333 84.3402 26.3C84.0935 26.56 83.9701 26.8133 83.9701 27.06C83.9701 27.4267 84.0935 27.7267 84.3402 27.96C84.5868 28.2 84.8868 28.3933 85.2402 28.54C85.5935 28.6867 85.9501 28.79 86.3101 28.85C86.6768 28.9033 86.9735 28.93 87.2002 28.93ZM105.79 17.33V38.74H102.83V17.33H105.79ZM130.23 17.36H133.09V38.71H130.17V20.76C129.737 21.1467 129.337 21.64 128.97 22.24C128.61 22.8467 128.247 23.4767 127.88 24.13C127.473 24.93 127.073 25.72 126.68 26.5C126.28 27.2867 125.837 27.9833 125.35 28.59C124.863 29.2033 124.307 29.7 123.68 30.08C123.053 30.4533 122.3 30.64 121.42 30.64C120.533 30.64 119.783 30.4567 119.17 30.09C118.557 29.73 118.017 29.25 117.55 28.65C117.083 28.0433 116.67 27.3667 116.31 26.62C115.943 25.8733 115.57 25.1133 115.19 24.34C114.803 23.6133 114.423 22.9367 114.05 22.31C113.67 21.69 113.253 21.1733 112.8 20.76V38.71H109.87V17.36H112.73C113.39 17.5867 113.977 17.91 114.49 18.33C114.997 18.75 115.457 19.2267 115.87 19.76C116.277 20.2933 116.643 20.86 116.97 21.46C117.303 22.06 117.627 22.6567 117.94 23.25C118.28 23.93 118.577 24.5467 118.83 25.1C119.077 25.66 119.327 26.1267 119.58 26.5C119.827 26.8733 120.093 27.1633 120.38 27.37C120.66 27.5767 121.007 27.68 121.42 27.68C121.847 27.68 122.21 27.5767 122.51 27.37C122.803 27.1633 123.08 26.8733 123.34 26.5C123.6 26.1267 123.86 25.66 124.12 25.1C124.38 24.5467 124.68 23.93 125.02 23.25C125.32 22.6567 125.64 22.06 125.98 21.46C126.32 20.86 126.693 20.2933 127.1 19.76C127.507 19.2267 127.967 18.75 128.48 18.33C128.993 17.91 129.577 17.5867 130.23 17.36ZM144.74 17.33H148.18C149.493 20.6433 150.73 23.73 151.89 26.59C152.363 27.81 152.85 29.04 153.35 30.28C153.85 31.52 154.32 32.6833 154.76 33.77C155.207 34.8567 155.607 35.8333 155.96 36.7C156.307 37.56 156.573 38.23 156.76 38.71H153.59C153.11 37.4833 152.627 36.2633 152.14 35.05C151.653 33.83 151.16 32.5733 150.66 31.28C149.887 31.0533 149.103 30.94 148.31 30.94C147.723 30.94 147.14 30.9867 146.56 31.08C145.98 31.1733 145.397 31.2633 144.81 31.35L142.18 31.76L139.36 38.71H136.16L138.98 31.62C138.593 31.5533 138.18 31.4533 137.74 31.32C137.3 31.18 136.863 30.9967 136.43 30.77V27.37C137.11 27.8033 137.75 28.1333 138.35 28.36C138.957 28.5867 139.543 28.7333 140.11 28.8L144.74 17.33ZM144.23 28.46C144.27 28.46 144.297 28.4533 144.31 28.44C144.323 28.4267 144.353 28.42 144.4 28.42C144.987 28.3067 145.6 28.2 146.24 28.1C146.873 28 147.52 27.95 148.18 27.95C148.36 27.95 148.55 27.9533 148.75 27.96C148.957 27.9733 149.15 27.9933 149.33 28.02L149.13 27.37L146.51 20.87L143.38 28.59C143.513 28.55 143.653 28.53 143.8 28.53C143.947 28.53 144.09 28.5067 144.23 28.46ZM175.82 30.4H178.82V31.45C178.887 32.25 179.097 32.9433 179.45 33.53C179.797 34.1233 180.243 34.6167 180.79 35.01C181.337 35.41 181.943 35.71 182.61 35.91C183.283 36.1167 183.96 36.22 184.64 36.22C185.34 36.22 186.02 36.1367 186.68 35.97C187.34 35.7967 187.93 35.54 188.45 35.2C188.977 34.86 189.397 34.44 189.71 33.94C190.03 33.44 190.19 32.86 190.19 32.2C190.19 31.4733 189.99 30.9067 189.59 30.5C189.197 30.0933 188.68 29.78 188.04 29.56C187.407 29.3467 186.68 29.1967 185.86 29.11C185.047 29.0167 184.21 28.9133 183.35 28.8C182.483 28.6867 181.643 28.5333 180.83 28.34C180.01 28.1467 179.283 27.83 178.65 27.39C178.01 26.9433 177.493 26.3533 177.1 25.62C176.7 24.88 176.5 23.92 176.5 22.74C176.5 21.72 176.723 20.83 177.17 20.07C177.61 19.31 178.2 18.6733 178.94 18.16C179.673 17.6467 180.507 17.2667 181.44 17.02C182.367 16.7667 183.32 16.64 184.3 16.64C185.273 16.64 186.227 16.7667 187.16 17.02C188.087 17.2667 188.92 17.6467 189.66 18.16C190.4 18.6733 190.997 19.31 191.45 20.07C191.903 20.83 192.14 21.72 192.16 22.74V23.45H189.24V22.74C189.147 22.1933 188.93 21.7233 188.59 21.33C188.25 20.93 187.84 20.5933 187.36 20.32C186.887 20.0467 186.36 19.8433 185.78 19.71C185.2 19.57 184.617 19.5 184.03 19.5C183.437 19.5 182.863 19.57 182.31 19.71C181.75 19.8433 181.26 20.0467 180.84 20.32C180.42 20.5933 180.08 20.93 179.82 21.33C179.56 21.7233 179.43 22.1933 179.43 22.74C179.43 23.4667 179.63 24.0267 180.03 24.42C180.423 24.82 180.94 25.1267 181.58 25.34C182.213 25.56 182.943 25.7133 183.77 25.8C184.597 25.8933 185.437 26.0033 186.29 26.13C187.143 26.25 187.983 26.4133 188.81 26.62C189.637 26.8267 190.37 27.15 191.01 27.59C191.643 28.03 192.157 28.6133 192.55 29.34C192.95 30.0667 193.15 31.02 193.15 32.2C193.15 33.4733 192.923 34.5533 192.47 35.44C192.017 36.3267 191.417 37.0467 190.67 37.6C189.917 38.1533 189.057 38.5633 188.09 38.83C187.13 39.09 186.15 39.22 185.15 39.22C182.177 39.22 179.88 38.44 178.26 36.88C176.633 35.3267 175.82 33.1667 175.82 30.4ZM210.41 21.68L204.52 29.38C204.68 29.4267 204.923 29.5067 205.25 29.62C205.583 29.7333 205.943 29.9233 206.33 30.19C206.717 30.4633 207.107 30.8167 207.5 31.25C207.9 31.6833 208.263 32.24 208.59 32.92C208.917 33.6 209.19 34.4167 209.41 35.37C209.623 36.3233 209.74 37.4467 209.76 38.74H206.63C206.63 37.22 206.45 36 206.09 35.08C205.723 34.16 205.217 33.4567 204.57 32.97C203.923 32.4833 203.157 32.16 202.27 32C201.39 31.84 200.417 31.76 199.35 31.76V38.71H196.21V16.85H199.35V28.53C199.663 28.53 199.973 28.5167 200.28 28.49C200.587 28.47 200.9 28.4833 201.22 28.53L206.5 21.68H210.41ZM216.98 21.75V38.74H214.02V21.75H216.98ZM215.48 19.2C215.027 19.2 214.637 19.0467 214.31 18.74C213.983 18.4333 213.82 18.0533 213.82 17.6C213.82 17.1467 213.983 16.7667 214.31 16.46C214.637 16.1533 215.027 16 215.48 16C215.96 16 216.363 16.1533 216.69 16.46C217.023 16.7667 217.19 17.1467 217.19 17.6C217.19 18.0533 217.023 18.4333 216.69 18.74C216.363 19.0467 215.96 19.2 215.48 19.2ZM224.37 21.72L224.34 24.1C224.493 23.4867 224.793 22.9833 225.24 22.59C225.68 22.19 226.157 21.8833 226.67 21.67C227.177 21.45 227.68 21.3 228.18 21.22C228.68 21.14 229.067 21.1 229.34 21.1C230.633 21.1 231.75 21.26 232.69 21.58C233.637 21.9 234.41 22.4 235.01 23.08C235.61 23.76 236.057 24.65 236.35 25.75C236.65 26.85 236.8 28.1833 236.8 29.75V38.77H233.73V29.65C233.73 28.9433 233.673 28.2733 233.56 27.64C233.447 27.0067 233.233 26.44 232.92 25.94C232.6 25.44 232.167 25.0367 231.62 24.73C231.08 24.4233 230.367 24.2367 229.48 24.17C228.867 24.17 228.253 24.2833 227.64 24.51C227.027 24.7367 226.48 25.07 226 25.51C225.527 25.9567 225.137 26.4967 224.83 27.13C224.523 27.7633 224.37 28.49 224.37 29.31V38.77H221.27V21.72H224.37Z" fill="#B1B1B1"/>
</mask>
<g mask="url(#mask0_676_447)">
<path d="M69.9402 17.15H70.6502C73.2435 17.31 75.1668 18.1167 76.4202 19.57C77.6802 21.0233 78.3101 22.9867 78.3101 25.46C78.3101 26.48 78.0902 27.4267 77.6502 28.3C77.2102 29.18 76.6102 29.9467 75.8502 30.6C75.0902 31.26 74.2035 31.7767 73.1902 32.15C72.1835 32.5233 71.1235 32.71 70.0102 32.71H65.3102V38.74H62.3102V20.73C61.9235 20.71 61.5602 20.6767 61.2202 20.63C60.8802 20.5833 60.5402 20.4933 60.2002 20.36V17.5C60.6535 17.6133 61.1235 17.69 61.6102 17.73C62.1035 17.7767 62.5535 17.8 62.9602 17.8C63.5468 17.8 64.1202 17.7667 64.6802 17.7C65.2335 17.6333 65.7935 17.5667 66.3602 17.5C66.9535 17.3867 67.5335 17.3 68.1002 17.24C68.6668 17.18 69.2802 17.15 69.9402 17.15ZM75.6202 25.29C75.6202 24.6767 75.5635 24.07 75.4502 23.47C75.3368 22.87 75.1002 22.33 74.7402 21.85C74.3735 21.3767 73.8502 20.98 73.1702 20.66C72.4902 20.3467 71.5835 20.1533 70.4502 20.08C69.8168 20.08 69.0635 20.1033 68.1902 20.15C67.3102 20.1967 66.3502 20.3433 65.3102 20.59V29.75H70.0102C70.7568 29.75 71.4602 29.65 72.1202 29.45C72.7802 29.2433 73.3635 28.94 73.8702 28.54C74.3835 28.1467 74.7935 27.6767 75.1002 27.13C75.4068 26.5833 75.5802 25.97 75.6202 25.29ZM81.3802 27.03C81.4268 26.2767 81.6702 25.5767 82.1102 24.93C82.5502 24.2833 83.1135 23.8267 83.8001 23.56C83.8868 23.5133 83.9635 23.49 84.0302 23.49V17.36C84.5102 17.2933 85.0635 17.2433 85.6902 17.21C86.3102 17.17 86.8935 17.15 87.4402 17.15C88.6668 17.15 89.8968 17.2667 91.1302 17.5C92.3702 17.7267 93.4835 18.1 94.4702 18.62C95.4568 19.14 96.2635 19.8433 96.8901 20.73C97.5101 21.6167 97.8202 22.7167 97.8202 24.03C97.8202 25.69 97.4302 27.0633 96.6502 28.15C95.8635 29.2433 94.6868 30.1067 93.1201 30.74C93.5535 31.5133 94.0135 32.29 94.5002 33.07C94.9868 33.8567 95.5168 34.56 96.0902 35.18C96.6568 35.8067 97.2668 36.3167 97.9202 36.71C98.5802 37.11 99.3068 37.31 100.1 37.31V40.2C98.8801 40.2 97.7535 39.93 96.7202 39.39C95.6868 38.8433 94.7502 38.15 93.9102 37.31C93.0702 36.47 92.3135 35.54 91.6401 34.52C90.9735 33.5 90.3901 32.5133 89.8901 31.56C89.7301 31.6 89.4735 31.64 89.1202 31.68C88.7735 31.7133 88.1435 31.75 87.2301 31.79C87.1901 31.79 87.1402 31.7967 87.0802 31.81C87.0268 31.8233 86.9768 31.83 86.9302 31.83V38.71H84.0302V31.18C83.7835 31.0667 83.5868 30.9433 83.4402 30.81C83.2935 30.67 83.1268 30.51 82.9402 30.33C82.4202 29.8767 82.0302 29.36 81.7702 28.78C81.5102 28.2 81.3802 27.6167 81.3802 27.03ZM89.4801 25.39C89.8001 25.71 90.1135 26.11 90.4202 26.59C90.7268 27.0633 91.0501 27.5833 91.3901 28.15C92.7301 27.6767 93.6502 27.0867 94.1502 26.38C94.6435 25.68 94.8901 24.9767 94.8901 24.27C94.8901 23.2967 94.6135 22.53 94.0602 21.97C93.5068 21.4167 92.8268 21.0033 92.0202 20.73C91.2135 20.4567 90.3568 20.2933 89.4502 20.24C88.5435 20.18 87.7268 20.15 87.0002 20.15C86.9735 20.1967 86.9602 20.3433 86.9602 20.59C86.9602 20.8167 86.9535 21.1633 86.9402 21.63C86.9335 22.0967 86.9302 22.76 86.9302 23.62C87.3168 23.78 87.7235 24.0033 88.1502 24.29C88.5835 24.57 89.0268 24.9367 89.4801 25.39ZM87.2002 28.93L88.7002 28.9C88.5402 28.6067 88.3368 28.29 88.0902 27.95C87.8368 27.61 87.5568 27.2867 87.2502 26.98C86.9435 26.6733 86.6135 26.4167 86.2602 26.21C85.9135 26.0033 85.5568 25.9 85.1902 25.9C84.8702 25.9 84.5868 26.0333 84.3402 26.3C84.0935 26.56 83.9701 26.8133 83.9701 27.06C83.9701 27.4267 84.0935 27.7267 84.3402 27.96C84.5868 28.2 84.8868 28.3933 85.2402 28.54C85.5935 28.6867 85.9501 28.79 86.3101 28.85C86.6768 28.9033 86.9735 28.93 87.2002 28.93ZM105.79 17.33V38.74H102.83V17.33H105.79ZM130.23 17.36H133.09V38.71H130.17V20.76C129.737 21.1467 129.337 21.64 128.97 22.24C128.61 22.8467 128.247 23.4767 127.88 24.13C127.473 24.93 127.073 25.72 126.68 26.5C126.28 27.2867 125.837 27.9833 125.35 28.59C124.863 29.2033 124.307 29.7 123.68 30.08C123.053 30.4533 122.3 30.64 121.42 30.64C120.533 30.64 119.783 30.4567 119.17 30.09C118.557 29.73 118.017 29.25 117.55 28.65C117.083 28.0433 116.67 27.3667 116.31 26.62C115.943 25.8733 115.57 25.1133 115.19 24.34C114.803 23.6133 114.423 22.9367 114.05 22.31C113.67 21.69 113.253 21.1733 112.8 20.76V38.71H109.87V17.36H112.73C113.39 17.5867 113.977 17.91 114.49 18.33C114.997 18.75 115.457 19.2267 115.87 19.76C116.277 20.2933 116.643 20.86 116.97 21.46C117.303 22.06 117.627 22.6567 117.94 23.25C118.28 23.93 118.577 24.5467 118.83 25.1C119.077 25.66 119.327 26.1267 119.58 26.5C119.827 26.8733 120.093 27.1633 120.38 27.37C120.66 27.5767 121.007 27.68 121.42 27.68C121.847 27.68 122.21 27.5767 122.51 27.37C122.803 27.1633 123.08 26.8733 123.34 26.5C123.6 26.1267 123.86 25.66 124.12 25.1C124.38 24.5467 124.68 23.93 125.02 23.25C125.32 22.6567 125.64 22.06 125.98 21.46C126.32 20.86 126.693 20.2933 127.1 19.76C127.507 19.2267 127.967 18.75 128.48 18.33C128.993 17.91 129.577 17.5867 130.23 17.36ZM144.74 17.33H148.18C149.493 20.6433 150.73 23.73 151.89 26.59C152.363 27.81 152.85 29.04 153.35 30.28C153.85 31.52 154.32 32.6833 154.76 33.77C155.207 34.8567 155.607 35.8333 155.96 36.7C156.307 37.56 156.573 38.23 156.76 38.71H153.59C153.11 37.4833 152.627 36.2633 152.14 35.05C151.653 33.83 151.16 32.5733 150.66 31.28C149.887 31.0533 149.103 30.94 148.31 30.94C147.723 30.94 147.14 30.9867 146.56 31.08C145.98 31.1733 145.397 31.2633 144.81 31.35L142.18 31.76L139.36 38.71H136.16L138.98 31.62C138.593 31.5533 138.18 31.4533 137.74 31.32C137.3 31.18 136.863 30.9967 136.43 30.77V27.37C137.11 27.8033 137.75 28.1333 138.35 28.36C138.957 28.5867 139.543 28.7333 140.11 28.8L144.74 17.33ZM144.23 28.46C144.27 28.46 144.297 28.4533 144.31 28.44C144.323 28.4267 144.353 28.42 144.4 28.42C144.987 28.3067 145.6 28.2 146.24 28.1C146.873 28 147.52 27.95 148.18 27.95C148.36 27.95 148.55 27.9533 148.75 27.96C148.957 27.9733 149.15 27.9933 149.33 28.02L149.13 27.37L146.51 20.87L143.38 28.59C143.513 28.55 143.653 28.53 143.8 28.53C143.947 28.53 144.09 28.5067 144.23 28.46ZM175.82 30.4H178.82V31.45C178.887 32.25 179.097 32.9433 179.45 33.53C179.797 34.1233 180.243 34.6167 180.79 35.01C181.337 35.41 181.943 35.71 182.61 35.91C183.283 36.1167 183.96 36.22 184.64 36.22C185.34 36.22 186.02 36.1367 186.68 35.97C187.34 35.7967 187.93 35.54 188.45 35.2C188.977 34.86 189.397 34.44 189.71 33.94C190.03 33.44 190.19 32.86 190.19 32.2C190.19 31.4733 189.99 30.9067 189.59 30.5C189.197 30.0933 188.68 29.78 188.04 29.56C187.407 29.3467 186.68 29.1967 185.86 29.11C185.047 29.0167 184.21 28.9133 183.35 28.8C182.483 28.6867 181.643 28.5333 180.83 28.34C180.01 28.1467 179.283 27.83 178.65 27.39C178.01 26.9433 177.493 26.3533 177.1 25.62C176.7 24.88 176.5 23.92 176.5 22.74C176.5 21.72 176.723 20.83 177.17 20.07C177.61 19.31 178.2 18.6733 178.94 18.16C179.673 17.6467 180.507 17.2667 181.44 17.02C182.367 16.7667 183.32 16.64 184.3 16.64C185.273 16.64 186.227 16.7667 187.16 17.02C188.087 17.2667 188.92 17.6467 189.66 18.16C190.4 18.6733 190.997 19.31 191.45 20.07C191.903 20.83 192.14 21.72 192.16 22.74V23.45H189.24V22.74C189.147 22.1933 188.93 21.7233 188.59 21.33C188.25 20.93 187.84 20.5933 187.36 20.32C186.887 20.0467 186.36 19.8433 185.78 19.71C185.2 19.57 184.617 19.5 184.03 19.5C183.437 19.5 182.863 19.57 182.31 19.71C181.75 19.8433 181.26 20.0467 180.84 20.32C180.42 20.5933 180.08 20.93 179.82 21.33C179.56 21.7233 179.43 22.1933 179.43 22.74C179.43 23.4667 179.63 24.0267 180.03 24.42C180.423 24.82 180.94 25.1267 181.58 25.34C182.213 25.56 182.943 25.7133 183.77 25.8C184.597 25.8933 185.437 26.0033 186.29 26.13C187.143 26.25 187.983 26.4133 188.81 26.62C189.637 26.8267 190.37 27.15 191.01 27.59C191.643 28.03 192.157 28.6133 192.55 29.34C192.95 30.0667 193.15 31.02 193.15 32.2C193.15 33.4733 192.923 34.5533 192.47 35.44C192.017 36.3267 191.417 37.0467 190.67 37.6C189.917 38.1533 189.057 38.5633 188.09 38.83C187.13 39.09 186.15 39.22 185.15 39.22C182.177 39.22 179.88 38.44 178.26 36.88C176.633 35.3267 175.82 33.1667 175.82 30.4ZM210.41 21.68L204.52 29.38C204.68 29.4267 204.923 29.5067 205.25 29.62C205.583 29.7333 205.943 29.9233 206.33 30.19C206.717 30.4633 207.107 30.8167 207.5 31.25C207.9 31.6833 208.263 32.24 208.59 32.92C208.917 33.6 209.19 34.4167 209.41 35.37C209.623 36.3233 209.74 37.4467 209.76 38.74H206.63C206.63 37.22 206.45 36 206.09 35.08C205.723 34.16 205.217 33.4567 204.57 32.97C203.923 32.4833 203.157 32.16 202.27 32C201.39 31.84 200.417 31.76 199.35 31.76V38.71H196.21V16.85H199.35V28.53C199.663 28.53 199.973 28.5167 200.28 28.49C200.587 28.47 200.9 28.4833 201.22 28.53L206.5 21.68H210.41ZM216.98 21.75V38.74H214.02V21.75H216.98ZM215.48 19.2C215.027 19.2 214.637 19.0467 214.31 18.74C213.983 18.4333 213.82 18.0533 213.82 17.6C213.82 17.1467 213.983 16.7667 214.31 16.46C214.637 16.1533 215.027 16 215.48 16C215.96 16 216.363 16.1533 216.69 16.46C217.023 16.7667 217.19 17.1467 217.19 17.6C217.19 18.0533 217.023 18.4333 216.69 18.74C216.363 19.0467 215.96 19.2 215.48 19.2ZM224.37 21.72L224.34 24.1C224.493 23.4867 224.793 22.9833 225.24 22.59C225.68 22.19 226.157 21.8833 226.67 21.67C227.177 21.45 227.68 21.3 228.18 21.22C228.68 21.14 229.067 21.1 229.34 21.1C230.633 21.1 231.75 21.26 232.69 21.58C233.637 21.9 234.41 22.4 235.01 23.08C235.61 23.76 236.057 24.65 236.35 25.75C236.65 26.85 236.8 28.1833 236.8 29.75V38.77H233.73V29.65C233.73 28.9433 233.673 28.2733 233.56 27.64C233.447 27.0067 233.233 26.44 232.92 25.94C232.6 25.44 232.167 25.0367 231.62 24.73C231.08 24.4233 230.367 24.2367 229.48 24.17C228.867 24.17 228.253 24.2833 227.64 24.51C227.027 24.7367 226.48 25.07 226 25.51C225.527 25.9567 225.137 26.4967 224.83 27.13C224.523 27.7633 224.37 28.49 224.37 29.31V38.77H221.27V21.72H224.37Z" fill="#B1B1B1" stroke="#B1B1B1" stroke-width="2"/>
</g>
<path d="M129.195 49.78H65.2002V50.78H129.195V49.78Z" fill="#B1B1B1"/>
<path d="M231.8 49.78H167.805V50.78H231.8V49.78Z" fill="#B1B1B1"/>
<path d="M132.191 50.276C132.191 50.916 132.281 51.496 132.451 52.006C132.621 52.506 132.861 52.936 133.171 53.286C133.481 53.636 133.841 53.896 134.261 54.086C134.681 54.266 135.141 54.356 135.641 54.356C136.141 54.356 136.591 54.256 136.981 54.056C137.371 53.856 137.731 53.576 138.041 53.216L137.471 52.606C137.221 52.886 136.951 53.106 136.661 53.256C136.381 53.406 136.051 53.486 135.661 53.486C135.291 53.486 134.951 53.406 134.651 53.256C134.351 53.106 134.091 52.886 133.891 52.606C133.681 52.326 133.521 51.986 133.401 51.596C133.281 51.196 133.231 50.756 133.231 50.256C133.231 49.766 133.291 49.326 133.411 48.936C133.531 48.546 133.691 48.206 133.911 47.936C134.131 47.656 134.391 47.446 134.691 47.296C134.991 47.146 135.331 47.076 135.711 47.076C136.051 47.076 136.341 47.146 136.591 47.276C136.841 47.406 137.071 47.586 137.281 47.806L137.851 47.176C137.611 46.916 137.321 46.686 136.961 46.496C136.601 46.296 136.181 46.196 135.701 46.196C135.191 46.196 134.731 46.296 134.301 46.486C133.871 46.666 133.501 46.936 133.191 47.296C132.881 47.646 132.631 48.076 132.461 48.576C132.281 49.076 132.191 49.646 132.191 50.276ZM139.501 46.346V54.216H143.941V53.366H140.501V46.346H139.501ZM145.331 46.346V54.216H146.331V46.346H145.331ZM148.491 46.346V54.216H149.441V50.096C149.441 49.686 149.421 49.266 149.401 48.856C149.371 48.446 149.341 48.036 149.311 47.636H149.351L150.211 49.256L153.061 54.216H154.091V46.346H153.151V50.416C153.151 50.826 153.161 51.246 153.191 51.676C153.221 52.106 153.241 52.516 153.271 52.916H153.221L152.371 51.286L149.521 46.346H148.491ZM156.251 46.346V54.216H157.251V46.346H156.251ZM158.951 50.276C158.951 50.916 159.041 51.496 159.211 52.006C159.381 52.506 159.621 52.936 159.931 53.286C160.241 53.636 160.601 53.896 161.021 54.086C161.441 54.266 161.901 54.356 162.401 54.356C162.901 54.356 163.351 54.256 163.741 54.056C164.131 53.856 164.491 53.576 164.801 53.216L164.231 52.606C163.981 52.886 163.711 53.106 163.421 53.256C163.141 53.406 162.811 53.486 162.421 53.486C162.051 53.486 161.711 53.406 161.411 53.256C161.111 53.106 160.851 52.886 160.651 52.606C160.441 52.326 160.281 51.986 160.161 51.596C160.041 51.196 159.991 50.756 159.991 50.256C159.991 49.766 160.051 49.326 160.171 48.936C160.291 48.546 160.451 48.206 160.671 47.936C160.891 47.656 161.151 47.446 161.451 47.296C161.751 47.146 162.091 47.076 162.471 47.076C162.811 47.076 163.101 47.146 163.351 47.276C163.601 47.406 163.831 47.586 164.041 47.806L164.611 47.176C164.371 46.916 164.081 46.686 163.721 46.496C163.361 46.296 162.941 46.196 162.461 46.196C161.951 46.196 161.491 46.296 161.061 46.486C160.631 46.666 160.261 46.936 159.951 47.296C159.641 47.646 159.391 48.076 159.221 48.576C159.041 49.076 158.951 49.646 158.951 50.276Z" fill="#B1B1B1"/>
</g>
<defs>
<clipPath id="clip0_676_447">
<rect width="237" height="62" fill="white"/>
</clipPath>
</defs>
</svg>
