<svg width="237" height="62" viewBox="0 0 237 62" fill="none" xmlns="http://www.w3.org/2000/svg">
<path d="M43.3214 24.7045C43.3214 28.2328 43.2896 31.761 43.3214 35.284C43.3618 35.7417 43.2613 36.2008 43.0335 36.5998C42.8056 36.9988 42.4613 37.3186 42.0465 37.5163C35.8117 41.1345 29.5785 44.7668 23.3472 48.4132C21.3688 49.5611 19.3957 50.7196 17.4121 51.8569C16.1584 52.5763 15.7934 52.3859 15.7828 50.8941V41.3726C15.7576 41.0018 15.8451 40.6321 16.0339 40.312C16.2228 39.9919 16.5041 39.7365 16.8408 39.5793C21.3688 36.9344 25.8704 34.2578 30.4143 31.6447C30.8304 31.4566 31.1777 31.1437 31.408 30.7494C31.6383 30.3551 31.7403 29.899 31.6997 29.4441C31.6416 26.2279 31.6468 23.0065 31.6997 19.7903C31.7403 19.3551 31.6451 18.9181 31.4273 18.5392C31.2094 18.1604 30.8796 17.8583 30.4831 17.6744C27.7218 16.1192 24.9765 14.5323 22.2787 12.8766C21.4217 12.3476 20.7817 12.6332 20.0834 13.0406L9.24998 19.3883L1.47402 23.9216C0.580046 24.4506 0.156865 24.1861 0.156865 23.1705V12.993C0.15608 12.6412 0.259712 12.297 0.454636 12.0042C0.649561 11.7113 0.92701 11.4829 1.25185 11.3478C6.11843 8.50194 10.9691 5.62959 15.8304 2.77841C17.1952 1.97436 18.5917 1.22322 19.9459 0.403303C20.3368 0.140411 20.7972 0 21.2683 0C21.7394 0 22.1998 0.140411 22.5908 0.403303C29.1642 4.25073 35.7411 8.09286 42.3216 11.9297C42.674 12.1078 42.964 12.3889 43.1529 12.7356C43.3419 13.0823 43.4209 13.4783 43.3796 13.8711C43.3055 17.4575 43.3214 21.0916 43.3214 24.7045Z" fill="#FE9B63"/>
<path d="M0.16744 59.3683C0.16744 50.6085 0.262656 41.8486 0.103963 33.094C0.0616451 30.9147 0.945036 29.7245 2.65363 28.8622C8.20789 26.1063 13.2808 22.5145 18.7768 19.6474C19.2 19.4253 19.565 19.092 19.9723 18.8328C20.7023 18.3673 21.5593 17.9759 22.3474 18.3567C24.2729 19.2825 26.2354 20.1976 27.743 21.8004C28.0286 22.1072 28.309 22.4828 28.1239 22.8583C27.5579 24.0327 27.8065 25.2863 27.6584 26.4924C27.4891 27.8995 26.209 28.2751 25.2145 28.8569C21.2013 31.2021 17.174 33.5207 13.1327 35.813C12.0747 36.4001 11.752 37.1619 11.7785 38.3838C11.8684 42.9595 11.8261 47.5404 11.7785 52.1372C11.7785 52.8831 11.6198 53.6236 11.5669 54.3642C11.5321 54.7347 11.403 55.0902 11.1918 55.3967C10.9807 55.7032 10.6946 55.9505 10.3608 56.1151C7.62601 57.8819 4.63729 59.2096 2.01357 61.1563C1.59568 61.4683 1.05083 61.7487 0.537724 61.4207C-0.181684 60.9288 -0.0388604 60.1036 0.16744 59.3683Z" fill="white"/>
<mask id="path-3-inside-1_1018_136" fill="white">
<path d="M69.4218 17.15H70.1318C72.7251 17.31 74.6484 18.1167 75.9018 19.57C77.1618 21.0233 77.7918 22.9867 77.7918 25.46C77.7918 26.48 77.5718 27.4267 77.1318 28.3C76.6918 29.18 76.0918 29.9467 75.3318 30.6C74.5718 31.26 73.6851 31.7767 72.6718 32.15C71.6651 32.5233 70.6051 32.71 69.4918 32.71H64.7918V38.74H61.7918V20.73C61.4051 20.71 61.0418 20.6767 60.7018 20.63C60.3618 20.5833 60.0218 20.4933 59.6818 20.36V17.5C60.1351 17.6133 60.6051 17.69 61.0918 17.73C61.5851 17.7767 62.0351 17.8 62.4418 17.8C63.0284 17.8 63.6018 17.7667 64.1618 17.7C64.7151 17.6333 65.2751 17.5667 65.8418 17.5C66.4351 17.3867 67.0151 17.3 67.5818 17.24C68.1484 17.18 68.7618 17.15 69.4218 17.15ZM75.1018 25.29C75.1018 24.6767 75.0451 24.07 74.9318 23.47C74.8184 22.87 74.5818 22.33 74.2218 21.85C73.8551 21.3767 73.3318 20.98 72.6518 20.66C71.9718 20.3467 71.0651 20.1533 69.9318 20.08C69.2984 20.08 68.5451 20.1033 67.6718 20.15C66.7918 20.1967 65.8318 20.3433 64.7918 20.59V29.75H69.4918C70.2384 29.75 70.9418 29.65 71.6018 29.45C72.2618 29.2433 72.8451 28.94 73.3518 28.54C73.8651 28.1467 74.2751 27.6767 74.5818 27.13C74.8884 26.5833 75.0618 25.97 75.1018 25.29ZM80.8618 27.03C80.9084 26.2767 81.1518 25.5767 81.5918 24.93C82.0318 24.2833 82.5951 23.8267 83.2818 23.56C83.3684 23.5133 83.4451 23.49 83.5118 23.49V17.36C83.9918 17.2933 84.5451 17.2433 85.1718 17.21C85.7918 17.17 86.3751 17.15 86.9218 17.15C88.1484 17.15 89.3784 17.2667 90.6118 17.5C91.8518 17.7267 92.9651 18.1 93.9518 18.62C94.9384 19.14 95.7451 19.8433 96.3718 20.73C96.9918 21.6167 97.3018 22.7167 97.3018 24.03C97.3018 25.69 96.9118 27.0633 96.1318 28.15C95.3451 29.2433 94.1684 30.1067 92.6018 30.74C93.0351 31.5133 93.4951 32.29 93.9818 33.07C94.4684 33.8567 94.9984 34.56 95.5718 35.18C96.1384 35.8067 96.7484 36.3167 97.4018 36.71C98.0618 37.11 98.7884 37.31 99.5818 37.31V40.2C98.3618 40.2 97.2351 39.93 96.2018 39.39C95.1684 38.8433 94.2318 38.15 93.3918 37.31C92.5518 36.47 91.7951 35.54 91.1218 34.52C90.4551 33.5 89.8718 32.5133 89.3718 31.56C89.2118 31.6 88.9551 31.64 88.6018 31.68C88.2551 31.7133 87.6251 31.75 86.7118 31.79C86.6718 31.79 86.6218 31.7967 86.5618 31.81C86.5084 31.8233 86.4584 31.83 86.4118 31.83V38.71H83.5118V31.18C83.2651 31.0667 83.0684 30.9433 82.9218 30.81C82.7751 30.67 82.6084 30.51 82.4218 30.33C81.9018 29.8767 81.5118 29.36 81.2518 28.78C80.9918 28.2 80.8618 27.6167 80.8618 27.03ZM88.9618 25.39C89.2818 25.71 89.5951 26.11 89.9018 26.59C90.2084 27.0633 90.5318 27.5833 90.8718 28.15C92.2118 27.6767 93.1318 27.0867 93.6318 26.38C94.1251 25.68 94.3718 24.9767 94.3718 24.27C94.3718 23.2967 94.0951 22.53 93.5418 21.97C92.9884 21.4167 92.3084 21.0033 91.5018 20.73C90.6951 20.4567 89.8384 20.2933 88.9318 20.24C88.0251 20.18 87.2084 20.15 86.4818 20.15C86.4551 20.1967 86.4418 20.3433 86.4418 20.59C86.4418 20.8167 86.4351 21.1633 86.4218 21.63C86.4151 22.0967 86.4118 22.76 86.4118 23.62C86.7984 23.78 87.2051 24.0033 87.6318 24.29C88.0651 24.57 88.5084 24.9367 88.9618 25.39ZM86.6818 28.93L88.1818 28.9C88.0218 28.6067 87.8184 28.29 87.5718 27.95C87.3184 27.61 87.0384 27.2867 86.7318 26.98C86.4251 26.6733 86.0951 26.4167 85.7418 26.21C85.3951 26.0033 85.0384 25.9 84.6718 25.9C84.3518 25.9 84.0684 26.0333 83.8218 26.3C83.5751 26.56 83.4518 26.8133 83.4518 27.06C83.4518 27.4267 83.5751 27.7267 83.8218 27.96C84.0684 28.2 84.3684 28.3933 84.7218 28.54C85.0751 28.6867 85.4318 28.79 85.7918 28.85C86.1584 28.9033 86.4551 28.93 86.6818 28.93ZM105.272 17.33V38.74H102.312V17.33H105.272ZM129.712 17.36H132.572V38.71H129.652V20.76C129.218 21.1467 128.818 21.64 128.452 22.24C128.092 22.8467 127.728 23.4767 127.362 24.13C126.955 24.93 126.555 25.72 126.162 26.5C125.762 27.2867 125.318 27.9833 124.832 28.59C124.345 29.2033 123.788 29.7 123.162 30.08C122.535 30.4533 121.782 30.64 120.902 30.64C120.015 30.64 119.265 30.4567 118.652 30.09C118.038 29.73 117.498 29.25 117.032 28.65C116.565 28.0433 116.152 27.3667 115.792 26.62C115.425 25.8733 115.052 25.1133 114.672 24.34C114.285 23.6133 113.905 22.9367 113.532 22.31C113.152 21.69 112.735 21.1733 112.282 20.76V38.71H109.352V17.36H112.212C112.872 17.5867 113.458 17.91 113.972 18.33C114.478 18.75 114.938 19.2267 115.352 19.76C115.758 20.2933 116.125 20.86 116.452 21.46C116.785 22.06 117.108 22.6567 117.422 23.25C117.762 23.93 118.058 24.5467 118.312 25.1C118.558 25.66 118.808 26.1267 119.062 26.5C119.308 26.8733 119.575 27.1633 119.862 27.37C120.142 27.5767 120.488 27.68 120.902 27.68C121.328 27.68 121.692 27.5767 121.992 27.37C122.285 27.1633 122.562 26.8733 122.822 26.5C123.082 26.1267 123.342 25.66 123.602 25.1C123.862 24.5467 124.162 23.93 124.502 23.25C124.802 22.6567 125.122 22.06 125.462 21.46C125.802 20.86 126.175 20.2933 126.582 19.76C126.988 19.2267 127.448 18.75 127.962 18.33C128.475 17.91 129.058 17.5867 129.712 17.36ZM144.222 17.33H147.662C148.975 20.6433 150.212 23.73 151.372 26.59C151.845 27.81 152.332 29.04 152.832 30.28C153.332 31.52 153.802 32.6833 154.242 33.77C154.688 34.8567 155.088 35.8333 155.442 36.7C155.788 37.56 156.055 38.23 156.242 38.71H153.072C152.592 37.4833 152.108 36.2633 151.622 35.05C151.135 33.83 150.642 32.5733 150.142 31.28C149.368 31.0533 148.585 30.94 147.792 30.94C147.205 30.94 146.622 30.9867 146.042 31.08C145.462 31.1733 144.878 31.2633 144.292 31.35L141.662 31.76L138.842 38.71H135.642L138.462 31.62C138.075 31.5533 137.662 31.4533 137.222 31.32C136.782 31.18 136.345 30.9967 135.912 30.77V27.37C136.592 27.8033 137.232 28.1333 137.832 28.36C138.438 28.5867 139.025 28.7333 139.592 28.8L144.222 17.33ZM143.712 28.46C143.752 28.46 143.778 28.4533 143.792 28.44C143.805 28.4267 143.835 28.42 143.882 28.42C144.468 28.3067 145.082 28.2 145.722 28.1C146.355 28 147.002 27.95 147.662 27.95C147.842 27.95 148.032 27.9533 148.232 27.96C148.438 27.9733 148.632 27.9933 148.812 28.02L148.612 27.37L145.992 20.87L142.862 28.59C142.995 28.55 143.135 28.53 143.282 28.53C143.428 28.53 143.572 28.5067 143.712 28.46ZM175.302 30.4H178.302V31.45C178.368 32.25 178.578 32.9433 178.932 33.53C179.278 34.1233 179.725 34.6167 180.272 35.01C180.818 35.41 181.425 35.71 182.092 35.91C182.765 36.1167 183.442 36.22 184.122 36.22C184.822 36.22 185.502 36.1367 186.162 35.97C186.822 35.7967 187.412 35.54 187.932 35.2C188.458 34.86 188.878 34.44 189.192 33.94C189.512 33.44 189.672 32.86 189.672 32.2C189.672 31.4733 189.472 30.9067 189.072 30.5C188.678 30.0933 188.162 29.78 187.522 29.56C186.888 29.3467 186.162 29.1967 185.342 29.11C184.528 29.0167 183.692 28.9133 182.832 28.8C181.965 28.6867 181.125 28.5333 180.312 28.34C179.492 28.1467 178.765 27.83 178.132 27.39C177.492 26.9433 176.975 26.3533 176.582 25.62C176.182 24.88 175.982 23.92 175.982 22.74C175.982 21.72 176.205 20.83 176.652 20.07C177.092 19.31 177.682 18.6733 178.422 18.16C179.155 17.6467 179.988 17.2667 180.922 17.02C181.848 16.7667 182.802 16.64 183.782 16.64C184.755 16.64 185.708 16.7667 186.642 17.02C187.568 17.2667 188.402 17.6467 189.142 18.16C189.882 18.6733 190.478 19.31 190.932 20.07C191.385 20.83 191.622 21.72 191.642 22.74V23.45H188.722V22.74C188.628 22.1933 188.412 21.7233 188.072 21.33C187.732 20.93 187.322 20.5933 186.842 20.32C186.368 20.0467 185.842 19.8433 185.262 19.71C184.682 19.57 184.098 19.5 183.512 19.5C182.918 19.5 182.345 19.57 181.792 19.71C181.232 19.8433 180.742 20.0467 180.322 20.32C179.902 20.5933 179.562 20.93 179.302 21.33C179.042 21.7233 178.912 22.1933 178.912 22.74C178.912 23.4667 179.112 24.0267 179.512 24.42C179.905 24.82 180.422 25.1267 181.062 25.34C181.695 25.56 182.425 25.7133 183.252 25.8C184.078 25.8933 184.918 26.0033 185.772 26.13C186.625 26.25 187.465 26.4133 188.292 26.62C189.118 26.8267 189.852 27.15 190.492 27.59C191.125 28.03 191.638 28.6133 192.032 29.34C192.432 30.0667 192.632 31.02 192.632 32.2C192.632 33.4733 192.405 34.5533 191.952 35.44C191.498 36.3267 190.898 37.0467 190.152 37.6C189.398 38.1533 188.538 38.5633 187.572 38.83C186.612 39.09 185.632 39.22 184.632 39.22C181.658 39.22 179.362 38.44 177.742 36.88C176.115 35.3267 175.302 33.1667 175.302 30.4ZM209.892 21.68L204.002 29.38C204.162 29.4267 204.405 29.5067 204.732 29.62C205.065 29.7333 205.425 29.9233 205.812 30.19C206.198 30.4633 206.588 30.8167 206.982 31.25C207.382 31.6833 207.745 32.24 208.072 32.92C208.398 33.6 208.672 34.4167 208.892 35.37C209.105 36.3233 209.222 37.4467 209.242 38.74H206.112C206.112 37.22 205.932 36 205.572 35.08C205.205 34.16 204.698 33.4567 204.052 32.97C203.405 32.4833 202.638 32.16 201.752 32C200.872 31.84 199.898 31.76 198.832 31.76V38.71H195.692V16.85H198.832V28.53C199.145 28.53 199.455 28.5167 199.762 28.49C200.068 28.47 200.382 28.4833 200.702 28.53L205.982 21.68H209.892ZM216.462 21.75V38.74H213.502V21.75H216.462ZM214.962 19.2C214.508 19.2 214.118 19.0467 213.792 18.74C213.465 18.4333 213.302 18.0533 213.302 17.6C213.302 17.1467 213.465 16.7667 213.792 16.46C214.118 16.1533 214.508 16 214.962 16C215.442 16 215.845 16.1533 216.172 16.46C216.505 16.7667 216.672 17.1467 216.672 17.6C216.672 18.0533 216.505 18.4333 216.172 18.74C215.845 19.0467 215.442 19.2 214.962 19.2ZM223.852 21.72L223.822 24.1C223.975 23.4867 224.275 22.9833 224.722 22.59C225.162 22.19 225.638 21.8833 226.152 21.67C226.658 21.45 227.162 21.3 227.662 21.22C228.162 21.14 228.548 21.1 228.822 21.1C230.115 21.1 231.232 21.26 232.172 21.58C233.118 21.9 233.892 22.4 234.492 23.08C235.092 23.76 235.538 24.65 235.832 25.75C236.132 26.85 236.282 28.1833 236.282 29.75V38.77H233.212V29.65C233.212 28.9433 233.155 28.2733 233.042 27.64C232.928 27.0067 232.715 26.44 232.402 25.94C232.082 25.44 231.648 25.0367 231.102 24.73C230.562 24.4233 229.848 24.2367 228.962 24.17C228.348 24.17 227.735 24.2833 227.122 24.51C226.508 24.7367 225.962 25.07 225.482 25.51C225.008 25.9567 224.618 26.4967 224.312 27.13C224.005 27.7633 223.852 28.49 223.852 29.31V38.77H220.752V21.72H223.852Z"/>
</mask>
<path d="M69.4218 17.15H70.1318C72.7251 17.31 74.6484 18.1167 75.9018 19.57C77.1618 21.0233 77.7918 22.9867 77.7918 25.46C77.7918 26.48 77.5718 27.4267 77.1318 28.3C76.6918 29.18 76.0918 29.9467 75.3318 30.6C74.5718 31.26 73.6851 31.7767 72.6718 32.15C71.6651 32.5233 70.6051 32.71 69.4918 32.71H64.7918V38.74H61.7918V20.73C61.4051 20.71 61.0418 20.6767 60.7018 20.63C60.3618 20.5833 60.0218 20.4933 59.6818 20.36V17.5C60.1351 17.6133 60.6051 17.69 61.0918 17.73C61.5851 17.7767 62.0351 17.8 62.4418 17.8C63.0284 17.8 63.6018 17.7667 64.1618 17.7C64.7151 17.6333 65.2751 17.5667 65.8418 17.5C66.4351 17.3867 67.0151 17.3 67.5818 17.24C68.1484 17.18 68.7618 17.15 69.4218 17.15ZM75.1018 25.29C75.1018 24.6767 75.0451 24.07 74.9318 23.47C74.8184 22.87 74.5818 22.33 74.2218 21.85C73.8551 21.3767 73.3318 20.98 72.6518 20.66C71.9718 20.3467 71.0651 20.1533 69.9318 20.08C69.2984 20.08 68.5451 20.1033 67.6718 20.15C66.7918 20.1967 65.8318 20.3433 64.7918 20.59V29.75H69.4918C70.2384 29.75 70.9418 29.65 71.6018 29.45C72.2618 29.2433 72.8451 28.94 73.3518 28.54C73.8651 28.1467 74.2751 27.6767 74.5818 27.13C74.8884 26.5833 75.0618 25.97 75.1018 25.29ZM80.8618 27.03C80.9084 26.2767 81.1518 25.5767 81.5918 24.93C82.0318 24.2833 82.5951 23.8267 83.2818 23.56C83.3684 23.5133 83.4451 23.49 83.5118 23.49V17.36C83.9918 17.2933 84.5451 17.2433 85.1718 17.21C85.7918 17.17 86.3751 17.15 86.9218 17.15C88.1484 17.15 89.3784 17.2667 90.6118 17.5C91.8518 17.7267 92.9651 18.1 93.9518 18.62C94.9384 19.14 95.7451 19.8433 96.3718 20.73C96.9918 21.6167 97.3018 22.7167 97.3018 24.03C97.3018 25.69 96.9118 27.0633 96.1318 28.15C95.3451 29.2433 94.1684 30.1067 92.6018 30.74C93.0351 31.5133 93.4951 32.29 93.9818 33.07C94.4684 33.8567 94.9984 34.56 95.5718 35.18C96.1384 35.8067 96.7484 36.3167 97.4018 36.71C98.0618 37.11 98.7884 37.31 99.5818 37.31V40.2C98.3618 40.2 97.2351 39.93 96.2018 39.39C95.1684 38.8433 94.2318 38.15 93.3918 37.31C92.5518 36.47 91.7951 35.54 91.1218 34.52C90.4551 33.5 89.8718 32.5133 89.3718 31.56C89.2118 31.6 88.9551 31.64 88.6018 31.68C88.2551 31.7133 87.6251 31.75 86.7118 31.79C86.6718 31.79 86.6218 31.7967 86.5618 31.81C86.5084 31.8233 86.4584 31.83 86.4118 31.83V38.71H83.5118V31.18C83.2651 31.0667 83.0684 30.9433 82.9218 30.81C82.7751 30.67 82.6084 30.51 82.4218 30.33C81.9018 29.8767 81.5118 29.36 81.2518 28.78C80.9918 28.2 80.8618 27.6167 80.8618 27.03ZM88.9618 25.39C89.2818 25.71 89.5951 26.11 89.9018 26.59C90.2084 27.0633 90.5318 27.5833 90.8718 28.15C92.2118 27.6767 93.1318 27.0867 93.6318 26.38C94.1251 25.68 94.3718 24.9767 94.3718 24.27C94.3718 23.2967 94.0951 22.53 93.5418 21.97C92.9884 21.4167 92.3084 21.0033 91.5018 20.73C90.6951 20.4567 89.8384 20.2933 88.9318 20.24C88.0251 20.18 87.2084 20.15 86.4818 20.15C86.4551 20.1967 86.4418 20.3433 86.4418 20.59C86.4418 20.8167 86.4351 21.1633 86.4218 21.63C86.4151 22.0967 86.4118 22.76 86.4118 23.62C86.7984 23.78 87.2051 24.0033 87.6318 24.29C88.0651 24.57 88.5084 24.9367 88.9618 25.39ZM86.6818 28.93L88.1818 28.9C88.0218 28.6067 87.8184 28.29 87.5718 27.95C87.3184 27.61 87.0384 27.2867 86.7318 26.98C86.4251 26.6733 86.0951 26.4167 85.7418 26.21C85.3951 26.0033 85.0384 25.9 84.6718 25.9C84.3518 25.9 84.0684 26.0333 83.8218 26.3C83.5751 26.56 83.4518 26.8133 83.4518 27.06C83.4518 27.4267 83.5751 27.7267 83.8218 27.96C84.0684 28.2 84.3684 28.3933 84.7218 28.54C85.0751 28.6867 85.4318 28.79 85.7918 28.85C86.1584 28.9033 86.4551 28.93 86.6818 28.93ZM105.272 17.33V38.74H102.312V17.33H105.272ZM129.712 17.36H132.572V38.71H129.652V20.76C129.218 21.1467 128.818 21.64 128.452 22.24C128.092 22.8467 127.728 23.4767 127.362 24.13C126.955 24.93 126.555 25.72 126.162 26.5C125.762 27.2867 125.318 27.9833 124.832 28.59C124.345 29.2033 123.788 29.7 123.162 30.08C122.535 30.4533 121.782 30.64 120.902 30.64C120.015 30.64 119.265 30.4567 118.652 30.09C118.038 29.73 117.498 29.25 117.032 28.65C116.565 28.0433 116.152 27.3667 115.792 26.62C115.425 25.8733 115.052 25.1133 114.672 24.34C114.285 23.6133 113.905 22.9367 113.532 22.31C113.152 21.69 112.735 21.1733 112.282 20.76V38.71H109.352V17.36H112.212C112.872 17.5867 113.458 17.91 113.972 18.33C114.478 18.75 114.938 19.2267 115.352 19.76C115.758 20.2933 116.125 20.86 116.452 21.46C116.785 22.06 117.108 22.6567 117.422 23.25C117.762 23.93 118.058 24.5467 118.312 25.1C118.558 25.66 118.808 26.1267 119.062 26.5C119.308 26.8733 119.575 27.1633 119.862 27.37C120.142 27.5767 120.488 27.68 120.902 27.68C121.328 27.68 121.692 27.5767 121.992 27.37C122.285 27.1633 122.562 26.8733 122.822 26.5C123.082 26.1267 123.342 25.66 123.602 25.1C123.862 24.5467 124.162 23.93 124.502 23.25C124.802 22.6567 125.122 22.06 125.462 21.46C125.802 20.86 126.175 20.2933 126.582 19.76C126.988 19.2267 127.448 18.75 127.962 18.33C128.475 17.91 129.058 17.5867 129.712 17.36ZM144.222 17.33H147.662C148.975 20.6433 150.212 23.73 151.372 26.59C151.845 27.81 152.332 29.04 152.832 30.28C153.332 31.52 153.802 32.6833 154.242 33.77C154.688 34.8567 155.088 35.8333 155.442 36.7C155.788 37.56 156.055 38.23 156.242 38.71H153.072C152.592 37.4833 152.108 36.2633 151.622 35.05C151.135 33.83 150.642 32.5733 150.142 31.28C149.368 31.0533 148.585 30.94 147.792 30.94C147.205 30.94 146.622 30.9867 146.042 31.08C145.462 31.1733 144.878 31.2633 144.292 31.35L141.662 31.76L138.842 38.71H135.642L138.462 31.62C138.075 31.5533 137.662 31.4533 137.222 31.32C136.782 31.18 136.345 30.9967 135.912 30.77V27.37C136.592 27.8033 137.232 28.1333 137.832 28.36C138.438 28.5867 139.025 28.7333 139.592 28.8L144.222 17.33ZM143.712 28.46C143.752 28.46 143.778 28.4533 143.792 28.44C143.805 28.4267 143.835 28.42 143.882 28.42C144.468 28.3067 145.082 28.2 145.722 28.1C146.355 28 147.002 27.95 147.662 27.95C147.842 27.95 148.032 27.9533 148.232 27.96C148.438 27.9733 148.632 27.9933 148.812 28.02L148.612 27.37L145.992 20.87L142.862 28.59C142.995 28.55 143.135 28.53 143.282 28.53C143.428 28.53 143.572 28.5067 143.712 28.46ZM175.302 30.4H178.302V31.45C178.368 32.25 178.578 32.9433 178.932 33.53C179.278 34.1233 179.725 34.6167 180.272 35.01C180.818 35.41 181.425 35.71 182.092 35.91C182.765 36.1167 183.442 36.22 184.122 36.22C184.822 36.22 185.502 36.1367 186.162 35.97C186.822 35.7967 187.412 35.54 187.932 35.2C188.458 34.86 188.878 34.44 189.192 33.94C189.512 33.44 189.672 32.86 189.672 32.2C189.672 31.4733 189.472 30.9067 189.072 30.5C188.678 30.0933 188.162 29.78 187.522 29.56C186.888 29.3467 186.162 29.1967 185.342 29.11C184.528 29.0167 183.692 28.9133 182.832 28.8C181.965 28.6867 181.125 28.5333 180.312 28.34C179.492 28.1467 178.765 27.83 178.132 27.39C177.492 26.9433 176.975 26.3533 176.582 25.62C176.182 24.88 175.982 23.92 175.982 22.74C175.982 21.72 176.205 20.83 176.652 20.07C177.092 19.31 177.682 18.6733 178.422 18.16C179.155 17.6467 179.988 17.2667 180.922 17.02C181.848 16.7667 182.802 16.64 183.782 16.64C184.755 16.64 185.708 16.7667 186.642 17.02C187.568 17.2667 188.402 17.6467 189.142 18.16C189.882 18.6733 190.478 19.31 190.932 20.07C191.385 20.83 191.622 21.72 191.642 22.74V23.45H188.722V22.74C188.628 22.1933 188.412 21.7233 188.072 21.33C187.732 20.93 187.322 20.5933 186.842 20.32C186.368 20.0467 185.842 19.8433 185.262 19.71C184.682 19.57 184.098 19.5 183.512 19.5C182.918 19.5 182.345 19.57 181.792 19.71C181.232 19.8433 180.742 20.0467 180.322 20.32C179.902 20.5933 179.562 20.93 179.302 21.33C179.042 21.7233 178.912 22.1933 178.912 22.74C178.912 23.4667 179.112 24.0267 179.512 24.42C179.905 24.82 180.422 25.1267 181.062 25.34C181.695 25.56 182.425 25.7133 183.252 25.8C184.078 25.8933 184.918 26.0033 185.772 26.13C186.625 26.25 187.465 26.4133 188.292 26.62C189.118 26.8267 189.852 27.15 190.492 27.59C191.125 28.03 191.638 28.6133 192.032 29.34C192.432 30.0667 192.632 31.02 192.632 32.2C192.632 33.4733 192.405 34.5533 191.952 35.44C191.498 36.3267 190.898 37.0467 190.152 37.6C189.398 38.1533 188.538 38.5633 187.572 38.83C186.612 39.09 185.632 39.22 184.632 39.22C181.658 39.22 179.362 38.44 177.742 36.88C176.115 35.3267 175.302 33.1667 175.302 30.4ZM209.892 21.68L204.002 29.38C204.162 29.4267 204.405 29.5067 204.732 29.62C205.065 29.7333 205.425 29.9233 205.812 30.19C206.198 30.4633 206.588 30.8167 206.982 31.25C207.382 31.6833 207.745 32.24 208.072 32.92C208.398 33.6 208.672 34.4167 208.892 35.37C209.105 36.3233 209.222 37.4467 209.242 38.74H206.112C206.112 37.22 205.932 36 205.572 35.08C205.205 34.16 204.698 33.4567 204.052 32.97C203.405 32.4833 202.638 32.16 201.752 32C200.872 31.84 199.898 31.76 198.832 31.76V38.71H195.692V16.85H198.832V28.53C199.145 28.53 199.455 28.5167 199.762 28.49C200.068 28.47 200.382 28.4833 200.702 28.53L205.982 21.68H209.892ZM216.462 21.75V38.74H213.502V21.75H216.462ZM214.962 19.2C214.508 19.2 214.118 19.0467 213.792 18.74C213.465 18.4333 213.302 18.0533 213.302 17.6C213.302 17.1467 213.465 16.7667 213.792 16.46C214.118 16.1533 214.508 16 214.962 16C215.442 16 215.845 16.1533 216.172 16.46C216.505 16.7667 216.672 17.1467 216.672 17.6C216.672 18.0533 216.505 18.4333 216.172 18.74C215.845 19.0467 215.442 19.2 214.962 19.2ZM223.852 21.72L223.822 24.1C223.975 23.4867 224.275 22.9833 224.722 22.59C225.162 22.19 225.638 21.8833 226.152 21.67C226.658 21.45 227.162 21.3 227.662 21.22C228.162 21.14 228.548 21.1 228.822 21.1C230.115 21.1 231.232 21.26 232.172 21.58C233.118 21.9 233.892 22.4 234.492 23.08C235.092 23.76 235.538 24.65 235.832 25.75C236.132 26.85 236.282 28.1833 236.282 29.75V38.77H233.212V29.65C233.212 28.9433 233.155 28.2733 233.042 27.64C232.928 27.0067 232.715 26.44 232.402 25.94C232.082 25.44 231.648 25.0367 231.102 24.73C230.562 24.4233 229.848 24.2367 228.962 24.17C228.348 24.17 227.735 24.2833 227.122 24.51C226.508 24.7367 225.962 25.07 225.482 25.51C225.008 25.9567 224.618 26.4967 224.312 27.13C224.005 27.7633 223.852 28.49 223.852 29.31V38.77H220.752V21.72H223.852Z" fill="white" stroke="white" stroke-width="2" mask="url(#path-3-inside-1_1018_136)"/>
<path d="M128.677 49.78H64.6818V50.78H128.677V49.78Z" fill="white"/>
<path d="M231.282 49.78H167.287V50.78H231.282V49.78Z" fill="white"/>
<path d="M131.673 50.276C131.673 50.916 131.763 51.496 131.933 52.006C132.103 52.506 132.343 52.936 132.653 53.286C132.963 53.636 133.323 53.896 133.743 54.086C134.163 54.266 134.623 54.356 135.123 54.356C135.623 54.356 136.073 54.256 136.463 54.056C136.853 53.856 137.213 53.576 137.523 53.216L136.953 52.606C136.703 52.886 136.433 53.106 136.143 53.256C135.863 53.406 135.533 53.486 135.143 53.486C134.773 53.486 134.433 53.406 134.133 53.256C133.833 53.106 133.573 52.886 133.373 52.606C133.163 52.326 133.003 51.986 132.883 51.596C132.763 51.196 132.713 50.756 132.713 50.256C132.713 49.766 132.773 49.326 132.893 48.936C133.013 48.546 133.173 48.206 133.393 47.936C133.613 47.656 133.873 47.446 134.173 47.296C134.473 47.146 134.813 47.076 135.193 47.076C135.533 47.076 135.823 47.146 136.073 47.276C136.323 47.406 136.553 47.586 136.763 47.806L137.333 47.176C137.093 46.916 136.803 46.686 136.443 46.496C136.083 46.296 135.663 46.196 135.183 46.196C134.673 46.196 134.213 46.296 133.783 46.486C133.353 46.666 132.983 46.936 132.673 47.296C132.363 47.646 132.113 48.076 131.943 48.576C131.763 49.076 131.673 49.646 131.673 50.276ZM138.983 46.346V54.216H143.423V53.366H139.983V46.346H138.983ZM144.813 46.346V54.216H145.813V46.346H144.813ZM147.973 46.346V54.216H148.923V50.096C148.923 49.686 148.903 49.266 148.883 48.856C148.853 48.446 148.823 48.036 148.793 47.636H148.833L149.693 49.256L152.543 54.216H153.573V46.346H152.633V50.416C152.633 50.826 152.643 51.246 152.673 51.676C152.703 52.106 152.723 52.516 152.753 52.916H152.703L151.853 51.286L149.003 46.346H147.973ZM155.733 46.346V54.216H156.733V46.346H155.733ZM158.433 50.276C158.433 50.916 158.523 51.496 158.693 52.006C158.863 52.506 159.103 52.936 159.413 53.286C159.723 53.636 160.083 53.896 160.503 54.086C160.923 54.266 161.383 54.356 161.883 54.356C162.383 54.356 162.833 54.256 163.223 54.056C163.613 53.856 163.973 53.576 164.283 53.216L163.713 52.606C163.463 52.886 163.193 53.106 162.903 53.256C162.623 53.406 162.293 53.486 161.903 53.486C161.533 53.486 161.193 53.406 160.893 53.256C160.593 53.106 160.333 52.886 160.133 52.606C159.923 52.326 159.763 51.986 159.643 51.596C159.523 51.196 159.473 50.756 159.473 50.256C159.473 49.766 159.533 49.326 159.653 48.936C159.773 48.546 159.933 48.206 160.153 47.936C160.373 47.656 160.633 47.446 160.933 47.296C161.233 47.146 161.573 47.076 161.953 47.076C162.293 47.076 162.583 47.146 162.833 47.276C163.083 47.406 163.313 47.586 163.523 47.806L164.093 47.176C163.853 46.916 163.563 46.686 163.203 46.496C162.843 46.296 162.423 46.196 161.943 46.196C161.433 46.196 160.973 46.296 160.543 46.486C160.113 46.666 159.743 46.936 159.433 47.296C159.123 47.646 158.873 48.076 158.703 48.576C158.523 49.076 158.433 49.646 158.433 50.276Z" fill="white"/>
</svg>
