<svg width="137" height="137" viewBox="0 0 137 137" fill="none" xmlns="http://www.w3.org/2000/svg">
<g clip-path="url(#clip0_883_353)">
<path fill-rule="evenodd" clip-rule="evenodd" d="M68.5039 1.49329C105.511 1.49329 135.511 31.4931 135.511 68.5C135.511 105.507 105.508 135.504 68.5039 135.504C31.5001 135.504 1.49414 105.504 1.49414 68.5C1.49414 31.4962 31.4939 1.49329 68.5039 1.49329Z" fill="black"/>
<path fill-rule="evenodd" clip-rule="evenodd" d="M71.6388 5.846C37.0255 5.846 8.9661 33.9054 8.9661 68.5187C8.9661 103.132 37.0255 131.191 71.6388 131.191C106.252 131.191 134.321 103.132 134.321 68.5187C134.321 33.9054 106.252 5.846 71.6388 5.846ZM68.5031 0.0124512C30.6673 0.0124512 0 30.6673 0 68.5C0 106.333 30.6673 137 68.5031 137C106.339 137 137 106.33 137 68.5C137 30.6704 106.333 0.0124512 68.5031 0.0124512Z" fill="#D2AB67"/>
<path fill-rule="evenodd" clip-rule="evenodd" d="M89.3045 115.283C85.1878 105.765 84.9984 98.208 86.3893 91.5331C89.4442 76.8669 100.077 69.1116 102.269 53.632C103.471 39.9718 93.1666 31.1268 81.6703 28.3699C87.9168 32.4555 91.692 36.6188 93.5392 42.5796C98.4724 59.7388 70.1398 73.1321 71.0898 98.208C72.1392 112.082 83.9211 122.666 100.059 128.046C87.9509 122.458 74.9271 111.213 73.3903 98.2887C70.3602 75.5599 97.9167 66.1095 95.9049 42.2754C97.659 45.616 98.1278 49.7265 97.0847 55.9357C94.4582 69.7512 83.7566 75.3394 82.1826 88.8445C82.0791 89.7655 82.0118 90.6793 81.9808 91.5858C81.6858 100.015 84.421 107.795 89.3014 115.271" fill="#D2AB67"/>
<path fill-rule="evenodd" clip-rule="evenodd" d="M111.279 127.391C103.052 121.713 95.8706 115.131 97.6868 103.992C101.058 104.836 106.02 106.23 109.531 105.147C113.949 103.781 114.324 99.4499 114.07 95.2276C116.072 93.9485 117.693 92.6787 115.641 91.0519C117.345 90.431 118.851 88.2578 116.678 88.0715C116.789 83.9703 116.625 84.6781 120.667 83.9889C122.188 83.8989 122.468 82.3342 121.8 81.1948C119.903 77.3637 118.407 74.4392 116.762 70.3908C116.69 69.8692 116.429 69.2855 116.609 68.5777C116.973 67.0254 118.845 67.3824 118.947 65.3675C118.804 63.6848 118.196 62.1573 117.612 60.5523C116.314 49.5992 110.944 40.006 102.344 34.3401C108.863 42.7598 110.382 53.4893 106.755 66.5721C108.388 66.7925 109.956 66.1871 111.505 65.4079C110.332 67.5811 108.513 68.4349 106.557 69.1334C108.6 72.0393 109.466 73.098 111.605 75.889C112.996 77.9443 113.495 81.0427 111.62 81.4307C110.363 81.8312 107.727 81.4773 107.976 83.8803C108.553 86.9383 110.229 88.562 106.29 88.4316C106.683 88.7427 107.007 89.1316 107.243 89.574C107.478 90.0163 107.62 90.5026 107.659 91.0022C107.767 93.4362 104.03 93.2344 104.244 94.6346C104.29 96.752 104.219 97.5902 104.265 99.7075C104.208 100.385 103.917 101.021 103.44 101.506C102.964 101.991 102.334 102.295 101.658 102.365C97.4788 102.93 90.4997 98.9935 90.332 97.9379C90.332 118.202 98.4723 126.236 111.26 127.404" fill="#D2AB67"/>
<path fill-rule="evenodd" clip-rule="evenodd" d="M68.8067 100.738V53.9735L48.5957 64.6161L57.1893 69.2047L60.2162 67.4475V104.743L68.8067 100.738Z" fill="#D2AB67"/>
<path fill-rule="evenodd" clip-rule="evenodd" d="M28.3893 104.839V79.2606L44.2041 88.146L53.0895 83.458V71.4494L19.5039 53.8743V62.5641L43.9123 76.4292V79.3569L19.6001 66.2741V100.251L28.3893 104.839Z" fill="#D2AB67"/>
</g>
<defs>
<clipPath id="clip0_883_353">
<rect width="137" height="137" fill="white"/>
</clipPath>
</defs>
</svg>
