<svg width="525" height="137" viewBox="0 0 525 137" fill="none" xmlns="http://www.w3.org/2000/svg">
<g clip-path="url(#clip0_1316_15074)">
<mask id="mask0_1316_15074" style="mask-type:luminance" maskUnits="userSpaceOnUse" x="0" y="0" width="137" height="137">
<path d="M137 0H0V137H137V0Z" fill="white"/>
</mask>
<g mask="url(#mask0_1316_15074)">
<path fill-rule="evenodd" clip-rule="evenodd" d="M68.5039 1.49341C105.511 1.49341 135.511 31.4932 135.511 68.5001C135.511 105.507 105.508 135.504 68.5039 135.504C31.5001 135.504 1.49414 105.504 1.49414 68.5001C1.49414 31.4963 31.4939 1.49341 68.5039 1.49341Z" fill="black"/>
<path fill-rule="evenodd" clip-rule="evenodd" d="M71.6388 5.846C37.0255 5.846 8.9661 33.9054 8.9661 68.5187C8.9661 103.132 37.0255 131.191 71.6388 131.191C106.252 131.191 134.321 103.132 134.321 68.5187C134.321 33.9054 106.252 5.846 71.6388 5.846ZM68.5031 0.0124512C30.6673 0.0124512 0 30.6673 0 68.5C0 106.333 30.6673 137 68.5031 137C106.339 137 137 106.33 137 68.5C137 30.6704 106.333 0.0124512 68.5031 0.0124512Z" fill="#FE9A63"/>
<path fill-rule="evenodd" clip-rule="evenodd" d="M89.3045 115.283C85.1878 105.765 84.9984 98.208 86.3893 91.5331C89.4442 76.8669 100.077 69.1116 102.269 53.632C103.471 39.9718 93.1666 31.1268 81.6703 28.3699C87.9168 32.4555 91.692 36.6188 93.5392 42.5796C98.4724 59.7388 70.1398 73.1321 71.0898 98.208C72.1392 112.082 83.9211 122.666 100.059 128.046C87.9509 122.458 74.9271 111.213 73.3903 98.2887C70.3602 75.5599 97.9167 66.1095 95.9049 42.2754C97.659 45.616 98.1278 49.7265 97.0847 55.9357C94.4582 69.7512 83.7566 75.3394 82.1826 88.8445C82.0791 89.7655 82.0118 90.6793 81.9808 91.5858C81.6858 100.015 84.421 107.795 89.3014 115.271" fill="#FBAB7E"/>
<path fill-rule="evenodd" clip-rule="evenodd" d="M111.279 127.391C103.052 121.713 95.8706 115.131 97.6868 103.992C101.058 104.836 106.02 106.23 109.531 105.147C113.949 103.781 114.324 99.4499 114.07 95.2276C116.072 93.9485 117.693 92.6787 115.641 91.0519C117.345 90.431 118.851 88.2578 116.678 88.0715C116.789 83.9703 116.625 84.6781 120.667 83.9889C122.188 83.8989 122.468 82.3342 121.8 81.1948C119.903 77.3637 118.407 74.4392 116.762 70.3908C116.69 69.8692 116.429 69.2855 116.609 68.5777C116.973 67.0254 118.845 67.3824 118.947 65.3675C118.804 63.6848 118.196 62.1573 117.612 60.5523C116.314 49.5992 110.944 40.006 102.344 34.3401C108.863 42.7598 110.382 53.4893 106.755 66.5721C108.388 66.7925 109.956 66.1871 111.505 65.4079C110.332 67.5811 108.513 68.4349 106.557 69.1334C108.6 72.0393 109.466 73.098 111.605 75.889C112.996 77.9443 113.495 81.0427 111.62 81.4307C110.363 81.8312 107.727 81.4773 107.976 83.8803C108.553 86.9383 110.229 88.562 106.29 88.4316C106.683 88.7427 107.007 89.1316 107.243 89.574C107.478 90.0163 107.62 90.5026 107.659 91.0022C107.767 93.4362 104.03 93.2344 104.244 94.6346C104.29 96.752 104.219 97.5902 104.265 99.7075C104.208 100.385 103.917 101.021 103.44 101.506C102.964 101.991 102.334 102.295 101.658 102.365C97.4788 102.93 90.4997 98.9935 90.332 97.9379C90.332 118.202 98.4723 126.236 111.26 127.404" fill="#FBAB7E"/>
<path fill-rule="evenodd" clip-rule="evenodd" d="M68.8067 100.738V53.9734L48.5957 64.616L57.1893 69.2046L60.2162 67.4474V104.743L68.8067 100.738Z" fill="#FBAB7E"/>
<path fill-rule="evenodd" clip-rule="evenodd" d="M28.3893 104.839V79.2606L44.2041 88.146L53.0895 83.458V71.4494L19.5039 53.8743V62.5641L43.9123 76.4292V79.3569L19.6001 66.2741V100.251L28.3893 104.839Z" fill="#FBAB7E"/>
</g>
</g>
<path d="M170.195 58V26.5H181.22C183.68 26.5 185.72 26.92 187.34 27.76C188.96 28.57 190.16 29.695 190.94 31.135C191.75 32.545 192.155 34.15 192.155 35.95C192.155 37.66 191.765 39.235 190.985 40.675C190.235 42.085 189.05 43.21 187.43 44.05C185.81 44.89 183.74 45.31 181.22 45.31H174.965V58H170.195ZM174.965 41.395H180.995C183.245 41.395 184.85 40.915 185.81 39.955C186.8 38.965 187.295 37.63 187.295 35.95C187.295 34.21 186.8 32.86 185.81 31.9C184.85 30.91 183.245 30.415 180.995 30.415H174.965V41.395ZM196.69 58V35.68H200.965L201.37 39.91C202.15 38.44 203.23 37.285 204.61 36.445C206.02 35.575 207.715 35.14 209.695 35.14V40.135H208.39C207.07 40.135 205.885 40.36 204.835 40.81C203.815 41.23 202.99 41.965 202.36 43.015C201.76 44.035 201.46 45.46 201.46 47.29V58H196.69ZM216.485 31.45C215.585 31.45 214.835 31.18 214.235 30.64C213.665 30.07 213.38 29.365 213.38 28.525C213.38 27.685 213.665 26.995 214.235 26.455C214.835 25.885 215.585 25.6 216.485 25.6C217.385 25.6 218.12 25.885 218.69 26.455C219.29 26.995 219.59 27.685 219.59 28.525C219.59 29.365 219.29 30.07 218.69 30.64C218.12 31.18 217.385 31.45 216.485 31.45ZM214.1 58V35.68H218.87V58H214.1ZM225.166 58V35.68H229.396L229.801 38.83C230.521 37.69 231.466 36.79 232.636 36.13C233.836 35.47 235.216 35.14 236.776 35.14C240.316 35.14 242.776 36.535 244.156 39.325C244.966 38.035 246.046 37.015 247.396 36.265C248.776 35.515 250.261 35.14 251.851 35.14C254.641 35.14 256.831 35.98 258.421 37.66C260.011 39.34 260.806 41.845 260.806 45.175V58H256.036V45.67C256.036 41.35 254.386 39.19 251.086 39.19C249.406 39.19 248.026 39.82 246.946 41.08C245.896 42.34 245.371 44.14 245.371 46.48V58H240.601V45.67C240.601 41.35 238.936 39.19 235.606 39.19C233.956 39.19 232.591 39.82 231.511 41.08C230.461 42.34 229.936 44.14 229.936 46.48V58H225.166ZM273.947 58.54C272.057 58.54 270.497 58.225 269.267 57.595C268.037 56.965 267.122 56.14 266.522 55.12C265.922 54.07 265.622 52.93 265.622 51.7C265.622 49.54 266.462 47.83 268.142 46.57C269.822 45.31 272.222 44.68 275.342 44.68H281.192V44.275C281.192 42.535 280.712 41.23 279.752 40.36C278.822 39.49 277.607 39.055 276.107 39.055C274.787 39.055 273.632 39.385 272.642 40.045C271.682 40.675 271.097 41.62 270.887 42.88H266.117C266.267 41.26 266.807 39.88 267.737 38.74C268.697 37.57 269.897 36.685 271.337 36.085C272.807 35.455 274.412 35.14 276.152 35.14C279.272 35.14 281.687 35.965 283.397 37.615C285.107 39.235 285.962 41.455 285.962 44.275V58H281.822L281.417 54.175C280.787 55.405 279.872 56.44 278.672 57.28C277.472 58.12 275.897 58.54 273.947 58.54ZM274.892 54.67C276.182 54.67 277.262 54.37 278.132 53.77C279.032 53.14 279.722 52.315 280.202 51.295C280.712 50.275 281.027 49.15 281.147 47.92H275.837C273.947 47.92 272.597 48.25 271.787 48.91C271.007 49.57 270.617 50.395 270.617 51.385C270.617 52.405 270.992 53.215 271.742 53.815C272.522 54.385 273.572 54.67 274.892 54.67ZM313.437 58.54C311.127 58.54 309.102 58.135 307.362 57.325C305.622 56.515 304.257 55.36 303.267 53.86C302.307 52.36 301.812 50.575 301.782 48.505H306.822C306.852 50.185 307.437 51.61 308.577 52.78C309.717 53.95 311.322 54.535 313.392 54.535C315.222 54.535 316.647 54.1 317.667 53.23C318.717 52.33 319.242 51.19 319.242 49.81C319.242 48.7 318.987 47.8 318.477 47.11C317.997 46.42 317.322 45.85 316.452 45.4C315.612 44.95 314.637 44.545 313.527 44.185C312.417 43.825 311.247 43.435 310.017 43.015C307.587 42.205 305.757 41.155 304.527 39.865C303.327 38.575 302.727 36.88 302.727 34.78C302.697 33.01 303.102 31.465 303.942 30.145C304.812 28.825 306.012 27.805 307.542 27.085C309.102 26.335 310.917 25.96 312.987 25.96C315.027 25.96 316.812 26.335 318.342 27.085C319.902 27.835 321.117 28.885 321.987 30.235C322.857 31.555 323.307 33.1 323.337 34.87H318.297C318.297 34.06 318.087 33.295 317.667 32.575C317.247 31.825 316.632 31.21 315.822 30.73C315.012 30.25 314.022 30.01 312.852 30.01C311.352 29.98 310.107 30.355 309.117 31.135C308.157 31.915 307.677 32.995 307.677 34.375C307.677 35.605 308.037 36.55 308.757 37.21C309.477 37.87 310.467 38.425 311.727 38.875C312.987 39.295 314.427 39.79 316.047 40.36C317.607 40.87 319.002 41.485 320.232 42.205C321.462 42.925 322.437 43.87 323.157 45.04C323.907 46.21 324.282 47.695 324.282 49.495C324.282 51.085 323.877 52.57 323.067 53.95C322.257 55.3 321.042 56.41 319.422 57.28C317.802 58.12 315.807 58.54 313.437 58.54ZM329.317 58V25.6H334.087V44.905L342.637 35.68H348.352L338.857 45.805L349.747 58H343.717L334.087 46.57V58H329.317ZM356.143 31.45C355.243 31.45 354.493 31.18 353.893 30.64C353.323 30.07 353.038 29.365 353.038 28.525C353.038 27.685 353.323 26.995 353.893 26.455C354.493 25.885 355.243 25.6 356.143 25.6C357.043 25.6 357.778 25.885 358.348 26.455C358.948 26.995 359.248 27.685 359.248 28.525C359.248 29.365 358.948 30.07 358.348 30.64C357.778 31.18 357.043 31.45 356.143 31.45ZM353.758 58V35.68H358.528V58H353.758ZM364.825 58V35.68H369.055L369.415 39.595C370.105 38.215 371.11 37.135 372.43 36.355C373.78 35.545 375.325 35.14 377.065 35.14C379.765 35.14 381.88 35.98 383.41 37.66C384.97 39.34 385.75 41.845 385.75 45.175V58H381.025V45.67C381.025 41.35 379.255 39.19 375.715 39.19C373.945 39.19 372.475 39.82 371.305 41.08C370.165 42.34 369.595 44.14 369.595 46.48V58H364.825ZM412.605 58.54C410.355 58.54 408.39 58.15 406.71 57.37C405.06 56.56 403.77 55.435 402.84 53.995C401.91 52.555 401.445 50.875 401.445 48.955C401.445 46.855 402.03 44.98 403.2 43.33C404.4 41.68 406.155 40.36 408.465 39.37C407.505 38.29 406.815 37.27 406.395 36.31C405.975 35.35 405.765 34.3 405.765 33.16C405.765 31.09 406.515 29.38 408.015 28.03C409.515 26.65 411.6 25.96 414.27 25.96C416.01 25.96 417.51 26.29 418.77 26.95C420.03 27.61 420.99 28.495 421.65 29.605C422.31 30.715 422.625 31.975 422.595 33.385H417.96C417.99 32.185 417.615 31.27 416.835 30.64C416.085 30.01 415.215 29.695 414.225 29.695C413.055 29.695 412.125 30.025 411.435 30.685C410.745 31.315 410.4 32.125 410.4 33.115C410.4 33.985 410.64 34.84 411.12 35.68C411.63 36.52 412.395 37.465 413.415 38.515L422.775 47.92C423.525 46.78 424.335 45.43 425.205 43.87L426.375 41.665H431.325L429.525 44.95C428.295 47.35 427.08 49.36 425.88 50.98L432.9 58H427.05L423.225 54.175C421.665 55.705 420.03 56.815 418.32 57.505C416.61 58.195 414.705 58.54 412.605 58.54ZM406.08 48.685C406.08 50.365 406.68 51.76 407.88 52.87C409.11 53.98 410.715 54.535 412.695 54.535C414.165 54.535 415.5 54.28 416.7 53.77C417.9 53.23 419.07 52.36 420.21 51.16L411.255 42.205C409.515 42.925 408.21 43.84 407.34 44.95C406.5 46.03 406.08 47.275 406.08 48.685ZM168.17 108L179.78 76.5H185L196.52 108H191.48L188.78 100.305H175.91L173.21 108H168.17ZM177.26 96.525H187.43L182.345 82.17L177.26 96.525ZM210.03 108.54C207.84 108.54 205.89 108.06 204.18 107.1C202.5 106.11 201.18 104.745 200.22 103.005C199.26 101.265 198.78 99.24 198.78 96.93C198.78 94.59 199.245 92.535 200.175 90.765C201.135 88.995 202.455 87.615 204.135 86.625C205.845 85.635 207.825 85.14 210.075 85.14C212.265 85.14 214.17 85.635 215.79 86.625C217.41 87.585 218.67 88.875 219.57 90.495C220.47 92.115 220.92 93.9 220.92 95.85C220.92 96.15 220.905 96.48 220.875 96.84C220.875 97.17 220.86 97.545 220.83 97.965H203.46C203.61 100.125 204.315 101.775 205.575 102.915C206.865 104.025 208.35 104.58 210.03 104.58C211.38 104.58 212.505 104.28 213.405 103.68C214.335 103.05 215.025 102.21 215.475 101.16H220.245C219.645 103.26 218.445 105.015 216.645 106.425C214.875 107.835 212.67 108.54 210.03 108.54ZM210.03 89.055C208.44 89.055 207.03 89.535 205.8 90.495C204.57 91.425 203.82 92.835 203.55 94.725H216.15C216.06 92.985 215.445 91.605 214.305 90.585C213.165 89.565 211.74 89.055 210.03 89.055ZM234.779 108.54C231.959 108.54 229.634 107.85 227.804 106.47C225.974 105.09 224.924 103.26 224.654 100.98H229.469C229.709 102 230.279 102.885 231.179 103.635C232.079 104.355 233.264 104.715 234.734 104.715C236.174 104.715 237.224 104.415 237.884 103.815C238.544 103.215 238.874 102.525 238.874 101.745C238.874 100.605 238.409 99.84 237.479 99.45C236.579 99.03 235.319 98.655 233.699 98.325C232.439 98.055 231.179 97.695 229.919 97.245C228.689 96.795 227.654 96.165 226.814 95.355C226.004 94.515 225.599 93.39 225.599 91.98C225.599 90.03 226.349 88.41 227.849 87.12C229.349 85.8 231.449 85.14 234.149 85.14C236.639 85.14 238.649 85.74 240.179 86.94C241.739 88.14 242.654 89.835 242.924 92.025H238.334C238.184 91.065 237.734 90.315 236.984 89.775C236.264 89.235 235.289 88.965 234.059 88.965C232.859 88.965 231.929 89.22 231.269 89.73C230.609 90.21 230.279 90.84 230.279 91.62C230.279 92.4 230.729 93.015 231.629 93.465C232.559 93.915 233.774 94.32 235.274 94.68C236.774 95.01 238.154 95.4 239.414 95.85C240.704 96.27 241.739 96.9 242.519 97.74C243.299 98.58 243.689 99.81 243.689 101.43C243.719 103.47 242.924 105.165 241.304 106.515C239.714 107.865 237.539 108.54 234.779 108.54ZM257.422 108C255.232 108 253.492 107.475 252.202 106.425C250.912 105.345 250.267 103.44 250.267 100.71V89.685H246.442V85.68H250.267L250.852 80.01H255.037V85.68H261.337V89.685H255.037V100.71C255.037 101.94 255.292 102.795 255.802 103.275C256.342 103.725 257.257 103.95 258.547 103.95H261.112V108H257.422ZM266.255 108V75.6H271.025V89.28C271.775 87.99 272.81 86.985 274.13 86.265C275.48 85.515 276.965 85.14 278.585 85.14C281.255 85.14 283.355 85.98 284.885 87.66C286.415 89.34 287.18 91.845 287.18 95.175V108H282.455V95.67C282.455 91.35 280.73 89.19 277.28 89.19C275.48 89.19 273.98 89.82 272.78 91.08C271.61 92.34 271.025 94.14 271.025 96.48V108H266.255ZM303.238 108.54C301.048 108.54 299.098 108.06 297.388 107.1C295.708 106.11 294.388 104.745 293.428 103.005C292.468 101.265 291.988 99.24 291.988 96.93C291.988 94.59 292.453 92.535 293.383 90.765C294.343 88.995 295.663 87.615 297.343 86.625C299.053 85.635 301.033 85.14 303.283 85.14C305.473 85.14 307.378 85.635 308.998 86.625C310.618 87.585 311.878 88.875 312.778 90.495C313.678 92.115 314.128 93.9 314.128 95.85C314.128 96.15 314.113 96.48 314.083 96.84C314.083 97.17 314.068 97.545 314.038 97.965H296.668C296.818 100.125 297.523 101.775 298.783 102.915C300.073 104.025 301.558 104.58 303.238 104.58C304.588 104.58 305.713 104.28 306.613 103.68C307.543 103.05 308.233 102.21 308.683 101.16H313.453C312.853 103.26 311.653 105.015 309.853 106.425C308.083 107.835 305.878 108.54 303.238 108.54ZM303.238 89.055C301.648 89.055 300.238 89.535 299.008 90.495C297.778 91.425 297.028 92.835 296.758 94.725H309.358C309.268 92.985 308.653 91.605 307.513 90.585C306.373 89.565 304.948 89.055 303.238 89.055ZM327.866 108C325.676 108 323.936 107.475 322.646 106.425C321.356 105.345 320.711 103.44 320.711 100.71V89.685H316.886V85.68H320.711L321.296 80.01H325.481V85.68H331.781V89.685H325.481V100.71C325.481 101.94 325.736 102.795 326.246 103.275C326.786 103.725 327.701 103.95 328.991 103.95H331.556V108H327.866ZM339.4 81.45C338.5 81.45 337.75 81.18 337.15 80.64C336.58 80.07 336.295 79.365 336.295 78.525C336.295 77.685 336.58 76.995 337.15 76.455C337.75 75.885 338.5 75.6 339.4 75.6C340.3 75.6 341.035 75.885 341.605 76.455C342.205 76.995 342.505 77.685 342.505 78.525C342.505 79.365 342.205 80.07 341.605 80.64C341.035 81.18 340.3 81.45 339.4 81.45ZM337.015 108V85.68H341.785V108H337.015ZM358.656 108.54C356.466 108.54 354.501 108.045 352.761 107.055C351.051 106.065 349.701 104.7 348.711 102.96C347.751 101.19 347.271 99.15 347.271 96.84C347.271 94.53 347.751 92.505 348.711 90.765C349.701 88.995 351.051 87.615 352.761 86.625C354.501 85.635 356.466 85.14 358.656 85.14C361.416 85.14 363.726 85.86 365.586 87.3C367.476 88.74 368.691 90.69 369.231 93.15H364.236C363.936 91.92 363.276 90.96 362.256 90.27C361.236 89.58 360.036 89.235 358.656 89.235C357.486 89.235 356.406 89.535 355.416 90.135C354.426 90.705 353.631 91.56 353.031 92.7C352.431 93.81 352.131 95.19 352.131 96.84C352.131 98.49 352.431 99.885 353.031 101.025C353.631 102.135 354.426 102.99 355.416 103.59C356.406 104.19 357.486 104.49 358.656 104.49C360.036 104.49 361.236 104.145 362.256 103.455C363.276 102.765 363.936 101.79 364.236 100.53H369.231C368.721 102.93 367.521 104.865 365.631 106.335C363.741 107.805 361.416 108.54 358.656 108.54ZM383.315 108.54C380.495 108.54 378.17 107.85 376.34 106.47C374.51 105.09 373.46 103.26 373.19 100.98H378.005C378.245 102 378.815 102.885 379.715 103.635C380.615 104.355 381.8 104.715 383.27 104.715C384.71 104.715 385.76 104.415 386.42 103.815C387.08 103.215 387.41 102.525 387.41 101.745C387.41 100.605 386.945 99.84 386.015 99.45C385.115 99.03 383.855 98.655 382.235 98.325C380.975 98.055 379.715 97.695 378.455 97.245C377.225 96.795 376.19 96.165 375.35 95.355C374.54 94.515 374.135 93.39 374.135 91.98C374.135 90.03 374.885 88.41 376.385 87.12C377.885 85.8 379.985 85.14 382.685 85.14C385.175 85.14 387.185 85.74 388.715 86.94C390.275 88.14 391.19 89.835 391.46 92.025H386.87C386.72 91.065 386.27 90.315 385.52 89.775C384.8 89.235 383.825 88.965 382.595 88.965C381.395 88.965 380.465 89.22 379.805 89.73C379.145 90.21 378.815 90.84 378.815 91.62C378.815 92.4 379.265 93.015 380.165 93.465C381.095 93.915 382.31 94.32 383.81 94.68C385.31 95.01 386.69 95.4 387.95 95.85C389.24 96.27 390.275 96.9 391.055 97.74C391.835 98.58 392.225 99.81 392.225 101.43C392.255 103.47 391.46 105.165 389.84 106.515C388.25 107.865 386.075 108.54 383.315 108.54ZM422.99 108.54C419.87 108.54 417.17 107.865 414.89 106.515C412.64 105.135 410.9 103.23 409.67 100.8C408.44 98.34 407.825 95.505 407.825 92.295C407.825 89.055 408.44 86.22 409.67 83.79C410.9 81.33 412.64 79.41 414.89 78.03C417.17 76.65 419.87 75.96 422.99 75.96C426.68 75.96 429.695 76.86 432.035 78.66C434.375 80.46 435.86 82.98 436.49 86.22H431.18C430.76 84.39 429.86 82.935 428.48 81.855C427.1 80.775 425.255 80.235 422.945 80.235C419.795 80.235 417.305 81.315 415.475 83.475C413.645 85.605 412.73 88.545 412.73 92.295C412.73 96.015 413.645 98.94 415.475 101.07C417.305 103.2 419.795 104.265 422.945 104.265C425.255 104.265 427.1 103.755 428.48 102.735C429.86 101.715 430.76 100.32 431.18 98.55H436.49C435.86 101.67 434.375 104.115 432.035 105.885C429.695 107.655 426.68 108.54 422.99 108.54ZM441.553 108V75.6H446.323V108H441.553ZM455.064 81.45C454.164 81.45 453.414 81.18 452.814 80.64C452.244 80.07 451.959 79.365 451.959 78.525C451.959 77.685 452.244 76.995 452.814 76.455C453.414 75.885 454.164 75.6 455.064 75.6C455.964 75.6 456.699 75.885 457.269 76.455C457.869 76.995 458.169 77.685 458.169 78.525C458.169 79.365 457.869 80.07 457.269 80.64C456.699 81.18 455.964 81.45 455.064 81.45ZM452.679 108V85.68H457.449V108H452.679ZM463.745 108V85.68H467.975L468.335 89.595C469.025 88.215 470.03 87.135 471.35 86.355C472.7 85.545 474.245 85.14 475.985 85.14C478.685 85.14 480.8 85.98 482.33 87.66C483.89 89.34 484.67 91.845 484.67 95.175V108H479.945V95.67C479.945 91.35 478.175 89.19 474.635 89.19C472.865 89.19 471.395 89.82 470.225 91.08C469.085 92.34 468.515 94.14 468.515 96.48V108H463.745ZM492.988 81.45C492.088 81.45 491.338 81.18 490.738 80.64C490.168 80.07 489.883 79.365 489.883 78.525C489.883 77.685 490.168 76.995 490.738 76.455C491.338 75.885 492.088 75.6 492.988 75.6C493.888 75.6 494.623 75.885 495.193 76.455C495.793 76.995 496.093 77.685 496.093 78.525C496.093 79.365 495.793 80.07 495.193 80.64C494.623 81.18 493.888 81.45 492.988 81.45ZM490.603 108V85.68H495.373V108H490.603ZM512.245 108.54C510.055 108.54 508.09 108.045 506.35 107.055C504.64 106.065 503.29 104.7 502.3 102.96C501.34 101.19 500.86 99.15 500.86 96.84C500.86 94.53 501.34 92.505 502.3 90.765C503.29 88.995 504.64 87.615 506.35 86.625C508.09 85.635 510.055 85.14 512.245 85.14C515.005 85.14 517.315 85.86 519.175 87.3C521.065 88.74 522.28 90.69 522.82 93.15H517.825C517.525 91.92 516.865 90.96 515.845 90.27C514.825 89.58 513.625 89.235 512.245 89.235C511.075 89.235 509.995 89.535 509.005 90.135C508.015 90.705 507.22 91.56 506.62 92.7C506.02 93.81 505.72 95.19 505.72 96.84C505.72 98.49 506.02 99.885 506.62 101.025C507.22 102.135 508.015 102.99 509.005 103.59C509.995 104.19 511.075 104.49 512.245 104.49C513.625 104.49 514.825 104.145 515.845 103.455C516.865 102.765 517.525 101.79 517.825 100.53H522.82C522.31 102.93 521.11 104.865 519.22 106.335C517.33 107.805 515.005 108.54 512.245 108.54Z" fill="black"/>
<defs>
<clipPath id="clip0_1316_15074">
<rect width="137" height="137" fill="white"/>
</clipPath>
</defs>
</svg>
